<?xml version="1.0" encoding="UTF-8" standalone="no"?>
<!-- Created with Inkscape (http://www.inkscape.org/) -->

<svg
   xmlns:dc="http://purl.org/dc/elements/1.1/"
   xmlns:cc="http://creativecommons.org/ns#"
   xmlns:rdf="http://www.w3.org/1999/02/22-rdf-syntax-ns#"
   xmlns:svg="http://www.w3.org/2000/svg"
   xmlns="http://www.w3.org/2000/svg"
   xmlns:sodipodi="http://sodipodi.sourceforge.net/DTD/sodipodi-0.dtd"
   xmlns:inkscape="http://www.inkscape.org/namespaces/inkscape"
   width="127.69009mm"
   height="127.69009mm"
   viewBox="0 0 127.69008 127.69009"
   version="1.1"
   id="svg8"
   inkscape:version="0.92.2 (5c3e80d, 2017-08-06)"
   sodipodi:docname="Dinawari.svg"
   inkscape:export-filename="/home/mohammad/Desktop/drawing2.svg.png"
   inkscape:export-xdpi="9.5481176"
   inkscape:export-ydpi="9.5481176">
  <title
     id="title1611">Dinawari</title>
  <defs
     id="defs2" />
  <sodipodi:namedview
     id="base"
     pagecolor="#ffffff"
     bordercolor="#666666"
     borderopacity="1.0"
     inkscape:pageopacity="0.0"
     inkscape:pageshadow="2"
     inkscape:zoom="0.70710678"
     inkscape:cx="238.1248"
     inkscape:cy="191.79704"
     inkscape:document-units="mm"
     inkscape:current-layer="layer5"
     showgrid="false"
     inkscape:window-width="1366"
     inkscape:window-height="713"
     inkscape:window-x="0"
     inkscape:window-y="27"
     inkscape:window-maximized="1"
     showguides="false"
     units="mm"
     fit-margin-top="0"
     fit-margin-left="0"
     fit-margin-right="0"
     fit-margin-bottom="0"
     showborder="true"
     borderlayer="false"
     inkscape:showpageshadow="false">
    <inkscape:grid
       type="xygrid"
       id="grid858"
       originx="-43.42041"
       originy="-81.25602" />
  </sodipodi:namedview>
  <metadata
     id="metadata5">
    <rdf:RDF>
      <cc:Work
         rdf:about="">
        <dc:format>image/svg+xml</dc:format>
        <dc:type
           rdf:resource="http://purl.org/dc/dcmitype/StillImage" />
        <dc:title>Dinawari</dc:title>
        <dc:date>5 Apr 2018</dc:date>
        <dc:creator>
          <cc:Agent>
            <dc:title>growingkid</dc:title>
          </cc:Agent>
        </dc:creator>
        <dc:rights>
          <cc:Agent>
            <dc:title>all rights are reserved!!!</dc:title>
          </cc:Agent>
        </dc:rights>
        <dc:publisher>
          <cc:Agent>
            <dc:title>growingkid</dc:title>
          </cc:Agent>
        </dc:publisher>
        <dc:identifier>-</dc:identifier>
        <dc:source>-</dc:source>
        <dc:relation>-</dc:relation>
        <dc:language>-</dc:language>
        <dc:subject>
          <rdf:Bag>
            <rdf:li>Dinawari</rdf:li>
          </rdf:Bag>
        </dc:subject>
        <dc:description>Dinawari icon created by growing kid</dc:description>
        <dc:contributor>
          <cc:Agent>
            <dc:title>growingkid</dc:title>
          </cc:Agent>
        </dc:contributor>
      </cc:Work>
    </rdf:RDF>
  </metadata>
  <g
     inkscape:label="Layer 1"
     inkscape:groupmode="layer"
     id="layer1"
     transform="translate(-43.420412,-88.053881)"
     sodipodi:insensitive="true">
    <circle
       id="path12"
       cx="107.26546"
       cy="151.89893"
       r="63.792011"
       style="fill:#2d215f;fill-opacity:1;stroke:#322c4b;stroke-width:0.10606747;stroke-opacity:1" />
    <path
       id="path4526"
       transform="scale(0.26458333)"
       style="fill:#322c4b;fill-opacity:0;stroke:#322c4b;stroke-width:2.85714293;stroke-opacity:0"
       d="M 377.61914,-3.4375 C 282.6786,-3.520018 270.47197,-2.0693169 208.875,16.601562 123.12143,42.594638 42.930931,87.588714 -24.265625,147.41602 -164.16752,271.97528 -237.19575,462.45158 -217.95898,652.61523 c 18.04036,178.33651 123.931595,347.67687 276.628902,442.38277 65.141778,40.4022 149.037948,72.8249 221.736328,85.6934 7.8962,1.3978 54.21344,2.2274 102.92773,1.8438 l 88.57227,-0.6973 34.43359,-9.0039 c 120.0694,-31.3896 210.82435,-81.8141 291.56055,-161.9961 84.64703,-84.06588 141.42081,-191.59727 165.96875,-314.34962 7.50383,-37.52343 7.52799,-177.02658 0.0371,-213.83398 C 945.03173,389.91196 906.38535,302.24144 853.20898,231.5332 828.87023,199.17015 763.09809,133.32061 731.91992,110.10352 667.64046,62.237287 585.86034,25.447818 497.61914,4.6992188 464.05974,-3.1917717 461.51766,-3.36458 377.61914,-3.4375 Z M 104.49805,632.08789 c 1.55249,-0.01 3.44085,0.56166 5.50195,1.93164 2.78665,1.85223 4.90671,4.39309 6.81836,7.09375 0.29144,0.41171 0.54542,0.84962 0.8418,1.25781 0.087,0.11981 0.42663,0.40901 0.30664,0.32227 -0.64251,-0.46568 -1.25277,-0.97349 -1.87891,-1.46094 -0.91492,0.0227 -1.82921,0.0437 -2.74414,0.0664 -9.8965,0.2434 13.76385,7.99023 3.9375,9.1914 -1.20659,0.14741 -2.41255,0.29566 -3.61914,0.44336 -1.12614,-0.61243 -2.32746,-1.10458 -3.37891,-1.83789 -0.99374,-0.69309 -2.75283,-4.07706 -3.90625,-5.17187 -0.73626,-0.69887 -1.58478,-1.26953 -2.37695,-1.9043 -5.793939,-4.64278 -4.159433,-9.90312 0.49805,-9.93164 z"
       inkscape:connector-curvature="0" />
    <path
       id="path4528"
       transform="scale(0.26458333)"
       style="fill:#322c4b;fill-opacity:0;stroke:#322c4b;stroke-width:2.85714293;stroke-opacity:0"
       d="M 374.76172,-3.4648438 C 276.88883,-3.4110649 262.21993,-1.3373475 190.78516,22.527344 -21.687227,93.509403 -172.51358,267.85772 -212.66797,488.90234 c -7.2783,40.06609 -10.08666,120.50748 -5.65039,161.87305 11.76853,109.73468 50.77295,208.30893 118.13867,298.57031 24.894836,33.35585 81.102112,90.133 112.884768,114.0293 76.294296,57.363 169.304242,98.6172 262.056642,116.2344 14.68406,2.789 43.92174,3.5698 110,2.9394 l 90,-0.8574 32.85742,-8.8359 c 91.94569,-24.7245 160.00461,-56.841 228.14258,-107.6582 114.36174,-85.29067 195.50395,-214.25478 226.58984,-360.13675 6.16308,-28.9226 6.69727,-38.14971 6.69727,-115.71485 0,-77.61686 -0.53208,-86.77295 -6.70899,-115.71484 C 944.20209,388.64652 905.86448,302.55834 856.03906,234.93359 835.64371,207.2523 781.96787,151.49058 750.47656,125.26758 680.27616,66.811298 587.18869,23.511058 484.76172,1.6679688 c -20.41449,-4.3534957 -37.94889,-5.1724035 -110,-5.1328126 z M 104.49805,632.08789 c 1.55249,-0.01 3.44085,0.56166 5.50195,1.93164 2.78665,1.85223 4.90671,4.39309 6.81836,7.09375 0.29144,0.41171 0.54542,0.84962 0.8418,1.25781 0.087,0.11981 0.42663,0.40901 0.30664,0.32227 -0.64251,-0.46568 -1.25277,-0.97349 -1.87891,-1.46094 -0.91492,0.0227 -1.82921,0.0437 -2.74414,0.0664 -9.8965,0.2434 13.76385,7.99023 3.9375,9.1914 -1.20659,0.14741 -2.41255,0.29566 -3.61914,0.44336 -1.12614,-0.61243 -2.32746,-1.10458 -3.37891,-1.83789 -0.99374,-0.69309 -2.75283,-4.07706 -3.90625,-5.17187 -0.73626,-0.69887 -1.58478,-1.26953 -2.37695,-1.9043 -5.793939,-4.64278 -4.159433,-9.90312 0.49805,-9.93164 z"
       inkscape:connector-curvature="0" />
    <path
       id="path4530"
       transform="scale(0.26458333)"
       style="fill:#322c4b;fill-opacity:0;stroke:#322c4b;stroke-width:2.85714293;stroke-opacity:0"
       d="M 374.76172,-3.4648438 C 276.88883,-3.4110649 262.21993,-1.3373475 190.78516,22.527344 -21.687227,93.509403 -172.51358,267.85772 -212.66797,488.90234 c -7.2783,40.06609 -10.08666,120.50748 -5.65039,161.87305 11.76853,109.73468 50.77295,208.30893 118.13867,298.57031 24.894836,33.35585 81.102112,90.133 112.884768,114.0293 76.294296,57.363 169.304242,98.6172 262.056642,116.2344 14.68406,2.789 43.92174,3.5698 110,2.9394 l 90,-0.8574 32.85742,-8.8359 c 91.94569,-24.7245 160.00461,-56.841 228.14258,-107.6582 114.36174,-85.29067 195.50395,-214.25478 226.58984,-360.13675 6.16308,-28.9226 6.69727,-38.14971 6.69727,-115.71485 0,-77.61686 -0.53208,-86.77295 -6.70899,-115.71484 C 944.20209,388.64652 905.86448,302.55834 856.03906,234.93359 835.64371,207.2523 781.96787,151.49058 750.47656,125.26758 680.27616,66.811298 587.18869,23.511058 484.76172,1.6679688 c -20.41449,-4.3534957 -37.94889,-5.1724035 -110,-5.1328126 z M 104.49805,632.08789 c 1.55249,-0.01 3.44085,0.56166 5.50195,1.93164 2.78665,1.85223 4.90671,4.39309 6.81836,7.09375 0.29144,0.41171 0.54542,0.84962 0.8418,1.25781 0.087,0.11981 0.42663,0.40901 0.30664,0.32227 -0.64251,-0.46568 -1.25277,-0.97349 -1.87891,-1.46094 -0.91492,0.0227 -1.82921,0.0437 -2.74414,0.0664 -9.8965,0.2434 13.76385,7.99023 3.9375,9.1914 -1.20659,0.14741 -2.41255,0.29566 -3.61914,0.44336 -1.12614,-0.61243 -2.32746,-1.10458 -3.37891,-1.83789 -0.99374,-0.69309 -2.75283,-4.07706 -3.90625,-5.17187 -0.73626,-0.69887 -1.58478,-1.26953 -2.37695,-1.9043 -5.793939,-4.64278 -4.159433,-9.90312 0.49805,-9.93164 z"
       inkscape:connector-curvature="0" />
    <path
       id="path4532"
       transform="scale(0.26458333)"
       style="fill:#322c4b;fill-opacity:0;stroke:#322c4b;stroke-width:2.85714293;stroke-opacity:0"
       d="M 374.76172,-3.4648438 C 276.88883,-3.4110649 262.21993,-1.3373475 190.78516,22.527344 -21.687227,93.509403 -172.51358,267.85772 -212.66797,488.90234 c -7.2783,40.06609 -10.08666,120.50748 -5.65039,161.87305 11.76853,109.73468 50.77295,208.30893 118.13867,298.57031 24.894836,33.35585 81.102112,90.133 112.884768,114.0293 76.294296,57.363 169.304242,98.6172 262.056642,116.2344 14.68406,2.789 43.92174,3.5698 110,2.9394 l 90,-0.8574 32.85742,-8.8359 c 91.94569,-24.7245 160.00461,-56.841 228.14258,-107.6582 114.36174,-85.29067 195.50395,-214.25478 226.58984,-360.13675 6.16308,-28.9226 6.69727,-38.14971 6.69727,-115.71485 0,-77.61686 -0.53208,-86.77295 -6.70899,-115.71484 C 944.20209,388.64652 905.86448,302.55834 856.03906,234.93359 835.64371,207.2523 781.96787,151.49058 750.47656,125.26758 680.27616,66.811298 587.18869,23.511058 484.76172,1.6679688 c -20.41449,-4.3534957 -37.94889,-5.1724035 -110,-5.1328126 z M 104.49805,632.08789 c 1.55249,-0.01 3.44085,0.56166 5.50195,1.93164 2.78665,1.85223 4.90671,4.39309 6.81836,7.09375 0.29144,0.41171 0.54542,0.84962 0.8418,1.25781 0.087,0.11981 0.42663,0.40901 0.30664,0.32227 -0.64251,-0.46568 -1.25277,-0.97349 -1.87891,-1.46094 -0.91492,0.0227 -1.82921,0.0437 -2.74414,0.0664 -9.8965,0.2434 13.76385,7.99023 3.9375,9.1914 -1.20659,0.14741 -2.41255,0.29566 -3.61914,0.44336 -1.12614,-0.61243 -2.32746,-1.10458 -3.37891,-1.83789 -0.99374,-0.69309 -2.75283,-4.07706 -3.90625,-5.17187 -0.73626,-0.69887 -1.58478,-1.26953 -2.37695,-1.9043 -5.793939,-4.64278 -4.159433,-9.90312 0.49805,-9.93164 z"
       inkscape:connector-curvature="0" />
    <path
       id="path4534"
       transform="scale(0.26458333)"
       style="fill:#322c4b;fill-opacity:0;stroke:#322c4b;stroke-width:2.85714293;stroke-opacity:0"
       d="M 374.76172,-3.4648438 C 276.88883,-3.4110649 262.21993,-1.3373475 190.78516,22.527344 -21.687227,93.509403 -172.51358,267.85772 -212.66797,488.90234 c -7.2783,40.06609 -10.08666,120.50748 -5.65039,161.87305 11.76853,109.73468 50.77295,208.30893 118.13867,298.57031 24.894836,33.35585 81.102112,90.133 112.884768,114.0293 76.294296,57.363 169.304242,98.6172 262.056642,116.2344 14.68406,2.789 43.92174,3.5698 110,2.9394 l 90,-0.8574 32.85742,-8.8359 c 91.94569,-24.7245 160.00461,-56.841 228.14258,-107.6582 114.36174,-85.29067 195.50395,-214.25478 226.58984,-360.13675 6.16308,-28.9226 6.69727,-38.14971 6.69727,-115.71485 0,-77.61686 -0.53208,-86.77295 -6.70899,-115.71484 C 944.20209,388.64652 905.86448,302.55834 856.03906,234.93359 835.64371,207.2523 781.96787,151.49058 750.47656,125.26758 680.27616,66.811298 587.18869,23.511058 484.76172,1.6679688 c -20.41449,-4.3534957 -37.94889,-5.1724035 -110,-5.1328126 z M 104.49805,632.08789 c 1.55249,-0.01 3.44085,0.56166 5.50195,1.93164 2.78665,1.85223 4.90671,4.39309 6.81836,7.09375 0.29144,0.41171 0.54542,0.84962 0.8418,1.25781 0.087,0.11981 0.42663,0.40901 0.30664,0.32227 -0.64251,-0.46568 -1.25277,-0.97349 -1.87891,-1.46094 -0.91492,0.0227 -1.82921,0.0437 -2.74414,0.0664 -9.8965,0.2434 13.76385,7.99023 3.9375,9.1914 -1.20659,0.14741 -2.41255,0.29566 -3.61914,0.44336 -1.12614,-0.61243 -2.32746,-1.10458 -3.37891,-1.83789 -0.99374,-0.69309 -2.75283,-4.07706 -3.90625,-5.17187 -0.73626,-0.69887 -1.58478,-1.26953 -2.37695,-1.9043 -5.793939,-4.64278 -4.159433,-9.90312 0.49805,-9.93164 z"
       inkscape:connector-curvature="0" />
    <path
       id="path4536"
       transform="scale(0.26458333)"
       style="fill:#322c4b;fill-opacity:0;stroke:#322c4b;stroke-width:2.85714293;stroke-opacity:0"
       d="M 374.76172,-3.4648438 C 276.88883,-3.4110649 262.21993,-1.3373475 190.78516,22.527344 -21.687227,93.509403 -172.51358,267.85772 -212.66797,488.90234 c -7.2783,40.06609 -10.08666,120.50748 -5.65039,161.87305 11.76853,109.73468 50.77295,208.30893 118.13867,298.57031 24.894836,33.35585 81.102112,90.133 112.884768,114.0293 76.294296,57.363 169.304242,98.6172 262.056642,116.2344 14.68406,2.789 43.92174,3.5698 110,2.9394 l 90,-0.8574 32.85742,-8.8359 c 91.94569,-24.7245 160.00461,-56.841 228.14258,-107.6582 114.36174,-85.29067 195.50395,-214.25478 226.58984,-360.13675 6.16308,-28.9226 6.69727,-38.14971 6.69727,-115.71485 0,-77.61686 -0.53208,-86.77295 -6.70899,-115.71484 C 944.20209,388.64652 905.86448,302.55834 856.03906,234.93359 835.64371,207.2523 781.96787,151.49058 750.47656,125.26758 680.27616,66.811298 587.18869,23.511058 484.76172,1.6679688 c -20.41449,-4.3534957 -37.94889,-5.1724035 -110,-5.1328126 z M 104.49805,632.08789 c 1.55249,-0.01 3.44085,0.56166 5.50195,1.93164 2.78665,1.85223 4.90671,4.39309 6.81836,7.09375 0.29144,0.41171 0.54542,0.84962 0.8418,1.25781 0.087,0.11981 0.42663,0.40901 0.30664,0.32227 -0.64251,-0.46568 -1.25277,-0.97349 -1.87891,-1.46094 -0.91492,0.0227 -1.82921,0.0437 -2.74414,0.0664 -9.8965,0.2434 13.76385,7.99023 3.9375,9.1914 -1.20659,0.14741 -2.41255,0.29566 -3.61914,0.44336 -1.12614,-0.61243 -2.32746,-1.10458 -3.37891,-1.83789 -0.99374,-0.69309 -2.75283,-4.07706 -3.90625,-5.17187 -0.73626,-0.69887 -1.58478,-1.26953 -2.37695,-1.9043 -5.793939,-4.64278 -4.159433,-9.90312 0.49805,-9.93164 z"
       inkscape:connector-curvature="0" />
    <path
       id="path4538"
       transform="scale(0.26458333)"
       style="fill:#322c4b;fill-opacity:0;stroke:#322c4b;stroke-width:2.85714293;stroke-opacity:0"
       d="M 374.76172,-3.4648438 C 276.88883,-3.4110649 262.21993,-1.3373475 190.78516,22.527344 -21.687227,93.509403 -172.51358,267.85772 -212.66797,488.90234 c -7.2783,40.06609 -10.08666,120.50748 -5.65039,161.87305 11.76853,109.73468 50.77295,208.30893 118.13867,298.57031 24.894836,33.35585 81.102112,90.133 112.884768,114.0293 76.294296,57.363 169.304242,98.6172 262.056642,116.2344 14.68406,2.789 43.92174,3.5698 110,2.9394 l 90,-0.8574 32.85742,-8.8359 c 91.94569,-24.7245 160.00461,-56.841 228.14258,-107.6582 114.36174,-85.29067 195.50395,-214.25478 226.58984,-360.13675 6.16308,-28.9226 6.69727,-38.14971 6.69727,-115.71485 0,-77.61686 -0.53208,-86.77295 -6.70899,-115.71484 C 944.20209,388.64652 905.86448,302.55834 856.03906,234.93359 835.64371,207.2523 781.96787,151.49058 750.47656,125.26758 680.27616,66.811298 587.18869,23.511058 484.76172,1.6679688 c -20.41449,-4.3534957 -37.94889,-5.1724035 -110,-5.1328126 z M 104.49805,632.08789 c 1.55249,-0.01 3.44085,0.56166 5.50195,1.93164 2.78665,1.85223 4.90671,4.39309 6.81836,7.09375 0.29144,0.41171 0.54542,0.84962 0.8418,1.25781 0.087,0.11981 0.42663,0.40901 0.30664,0.32227 -0.64251,-0.46568 -1.25277,-0.97349 -1.87891,-1.46094 -0.91492,0.0227 -1.82921,0.0437 -2.74414,0.0664 -9.8965,0.2434 13.76385,7.99023 3.9375,9.1914 -1.20659,0.14741 -2.41255,0.29566 -3.61914,0.44336 -1.12614,-0.61243 -2.32746,-1.10458 -3.37891,-1.83789 -0.99374,-0.69309 -2.75283,-4.07706 -3.90625,-5.17187 -0.73626,-0.69887 -1.58478,-1.26953 -2.37695,-1.9043 -5.793939,-4.64278 -4.159433,-9.90312 0.49805,-9.93164 z"
       inkscape:connector-curvature="0" />
    <path
       id="path4540"
       transform="scale(0.26458333)"
       style="fill:#322c4b;fill-opacity:0;stroke:#322c4b;stroke-width:2.85714293;stroke-opacity:0"
       d="M 374.76172,-3.4648438 C 276.88883,-3.4110649 262.21993,-1.3373475 190.78516,22.527344 -21.687227,93.509403 -172.51358,267.85772 -212.66797,488.90234 c -7.2783,40.06609 -10.08666,120.50748 -5.65039,161.87305 11.76853,109.73468 50.77295,208.30893 118.13867,298.57031 24.894836,33.35585 81.102112,90.133 112.884768,114.0293 76.294296,57.363 169.304242,98.6172 262.056642,116.2344 14.68406,2.789 43.92174,3.5698 110,2.9394 l 90,-0.8574 32.85742,-8.8359 c 91.94569,-24.7245 160.00461,-56.841 228.14258,-107.6582 114.36174,-85.29067 195.50395,-214.25478 226.58984,-360.13675 6.16308,-28.9226 6.69727,-38.14971 6.69727,-115.71485 0,-77.61686 -0.53208,-86.77295 -6.70899,-115.71484 C 944.20209,388.64652 905.86448,302.55834 856.03906,234.93359 835.64371,207.2523 781.96787,151.49058 750.47656,125.26758 680.27616,66.811298 587.18869,23.511058 484.76172,1.6679688 c -20.41449,-4.3534957 -37.94889,-5.1724035 -110,-5.1328126 z M 104.49805,632.08789 c 1.55249,-0.01 3.44085,0.56166 5.50195,1.93164 2.78665,1.85223 4.90671,4.39309 6.81836,7.09375 0.29144,0.41171 0.54542,0.84962 0.8418,1.25781 0.087,0.11981 0.42663,0.40901 0.30664,0.32227 -0.64251,-0.46568 -1.25277,-0.97349 -1.87891,-1.46094 -0.91492,0.0227 -1.82921,0.0437 -2.74414,0.0664 -9.8965,0.2434 13.76385,7.99023 3.9375,9.1914 -1.20659,0.14741 -2.41255,0.29566 -3.61914,0.44336 -1.12614,-0.61243 -2.32746,-1.10458 -3.37891,-1.83789 -0.99374,-0.69309 -2.75283,-4.07706 -3.90625,-5.17187 -0.73626,-0.69887 -1.58478,-1.26953 -2.37695,-1.9043 -5.793939,-4.64278 -4.159433,-9.90312 0.49805,-9.93164 z"
       inkscape:connector-curvature="0" />
    <path
       id="path4542"
       transform="scale(0.26458333)"
       style="fill:#322c4b;fill-opacity:0;stroke:#322c4b;stroke-width:2.85732293;stroke-miterlimit:4;stroke-dasharray:none;stroke-opacity:0"
       d="M 374.76172,-3.4648438 C 276.88883,-3.4110649 262.21993,-1.3373475 190.78516,22.527344 -21.687227,93.509403 -172.51358,267.85772 -212.66797,488.90234 c -7.2783,40.06609 -10.08666,120.50748 -5.65039,161.87305 11.76853,109.73468 50.77295,208.30893 118.13867,298.57031 24.894836,33.35585 81.102112,90.133 112.884768,114.0293 76.294296,57.363 169.304242,98.6172 262.056642,116.2344 14.68406,2.789 43.92174,3.5698 110,2.9394 l 90,-0.8574 32.85742,-8.8359 c 91.94569,-24.7245 160.00461,-56.841 228.14258,-107.6582 114.36174,-85.29067 195.50395,-214.25478 226.58984,-360.13675 6.16308,-28.9226 6.69727,-38.14971 6.69727,-115.71485 0,-77.61686 -0.53208,-86.77295 -6.70899,-115.71484 C 944.20209,388.64652 905.86448,302.55834 856.03906,234.93359 835.64371,207.2523 781.96787,151.49058 750.47656,125.26758 680.27616,66.811298 587.18869,23.511058 484.76172,1.6679688 c -20.41449,-4.3534957 -37.94889,-5.1724035 -110,-5.1328126 z M 104.49805,632.08789 c 1.55249,-0.01 3.44085,0.56166 5.50195,1.93164 2.78665,1.85223 4.90671,4.39309 6.81836,7.09375 0.29144,0.41171 0.54542,0.84962 0.8418,1.25781 0.087,0.11981 0.42663,0.40901 0.30664,0.32227 -0.64251,-0.46568 -1.25277,-0.97349 -1.87891,-1.46094 -0.91492,0.0227 -1.82921,0.0437 -2.74414,0.0664 -9.8965,0.2434 13.76385,7.99023 3.9375,9.1914 -1.20659,0.14741 -2.41255,0.29566 -3.61914,0.44336 -1.12614,-0.61243 -2.32746,-1.10458 -3.37891,-1.83789 -0.99374,-0.69309 -2.75283,-4.07706 -3.90625,-5.17187 -0.73626,-0.69887 -1.58478,-1.26953 -2.37695,-1.9043 -5.793939,-4.64278 -4.159433,-9.90312 0.49805,-9.93164 z"
       inkscape:connector-curvature="0" />
    <path
       id="path4548"
       transform="scale(0.26458333)"
       style="fill:#808000;fill-opacity:0;stroke:#322c4b;stroke-width:8.16378021;stroke-miterlimit:4;stroke-dasharray:none;stroke-opacity:0"
       d="M 374.76172,-3.4648438 C 276.88883,-3.4110649 262.21993,-1.3373475 190.78516,22.527344 -21.687227,93.509403 -172.51358,267.85772 -212.66797,488.90234 c -7.2783,40.06609 -10.08666,120.50748 -5.65039,161.87305 11.76853,109.73468 50.77295,208.30893 118.13867,298.57031 24.894836,33.35585 81.102112,90.133 112.884768,114.0293 76.294296,57.363 169.304242,98.6172 262.056642,116.2344 14.68406,2.789 43.92174,3.5698 110,2.9394 l 90,-0.8574 32.85742,-8.8359 c 91.94569,-24.7245 160.00461,-56.841 228.14258,-107.6582 114.36174,-85.29067 195.50395,-214.25478 226.58984,-360.13675 6.16308,-28.9226 6.69727,-38.14971 6.69727,-115.71485 0,-77.61686 -0.53208,-86.77295 -6.70899,-115.71484 C 944.20209,388.64652 905.86448,302.55834 856.03906,234.93359 835.64371,207.2523 781.96787,151.49058 750.47656,125.26758 680.27616,66.811298 587.18869,23.511058 484.76172,1.6679688 c -20.41449,-4.3534957 -37.94889,-5.1724035 -110,-5.1328126 z M 104.49805,632.08789 c 1.55249,-0.01 3.44085,0.56166 5.50195,1.93164 2.78665,1.85223 4.90671,4.39309 6.81836,7.09375 0.29144,0.41171 0.54542,0.84962 0.8418,1.25781 0.087,0.11981 0.42663,0.40901 0.30664,0.32227 -0.64251,-0.46568 -1.25277,-0.97349 -1.87891,-1.46094 -0.91492,0.0227 -1.82921,0.0437 -2.74414,0.0664 -9.8965,0.2434 13.76385,7.99023 3.9375,9.1914 -1.20659,0.14741 -2.41255,0.29566 -3.61914,0.44336 -1.12614,-0.61243 -2.32746,-1.10458 -3.37891,-1.83789 -0.99374,-0.69309 -2.75283,-4.07706 -3.90625,-5.17187 -0.73626,-0.69887 -1.58478,-1.26953 -2.37695,-1.9043 -5.793939,-4.64278 -4.159433,-9.90312 0.49805,-9.93164 z"
       inkscape:connector-curvature="0" />
    <path
       id="path4550"
       transform="scale(0.26458333)"
       style="fill:#808000;fill-opacity:0;stroke:#322c4b;stroke-width:8.16378021;stroke-miterlimit:4;stroke-dasharray:none;stroke-opacity:0"
       d="M 374.76172,-3.4648438 C 276.88883,-3.4110649 262.21993,-1.3373475 190.78516,22.527344 -21.687227,93.509403 -172.51358,267.85772 -212.66797,488.90234 c -7.2783,40.06609 -10.08666,120.50748 -5.65039,161.87305 11.76853,109.73468 50.77295,208.30893 118.13867,298.57031 24.894836,33.35585 81.102112,90.133 112.884768,114.0293 76.294296,57.363 169.304242,98.6172 262.056642,116.2344 14.68406,2.789 43.92174,3.5698 110,2.9394 l 90,-0.8574 32.85742,-8.8359 c 91.94569,-24.7245 160.00461,-56.841 228.14258,-107.6582 114.36174,-85.29067 195.50395,-214.25478 226.58984,-360.13675 6.16308,-28.9226 6.69727,-38.14971 6.69727,-115.71485 0,-77.61686 -0.53208,-86.77295 -6.70899,-115.71484 C 944.20209,388.64652 905.86448,302.55834 856.03906,234.93359 835.64371,207.2523 781.96787,151.49058 750.47656,125.26758 680.27616,66.811298 587.18869,23.511058 484.76172,1.6679688 c -20.41449,-4.3534957 -37.94889,-5.1724035 -110,-5.1328126 z M 104.49805,632.08789 c 1.55249,-0.01 3.44085,0.56166 5.50195,1.93164 2.78665,1.85223 4.90671,4.39309 6.81836,7.09375 0.29144,0.41171 0.54542,0.84962 0.8418,1.25781 0.087,0.11981 0.42663,0.40901 0.30664,0.32227 -0.64251,-0.46568 -1.25277,-0.97349 -1.87891,-1.46094 -0.91492,0.0227 -1.82921,0.0437 -2.74414,0.0664 -9.8965,0.2434 13.76385,7.99023 3.9375,9.1914 -1.20659,0.14741 -2.41255,0.29566 -3.61914,0.44336 -1.12614,-0.61243 -2.32746,-1.10458 -3.37891,-1.83789 -0.99374,-0.69309 -2.75283,-4.07706 -3.90625,-5.17187 -0.73626,-0.69887 -1.58478,-1.26953 -2.37695,-1.9043 -5.793939,-4.64278 -4.159433,-9.90312 0.49805,-9.93164 z"
       inkscape:connector-curvature="0" />
    <path
       id="path4552"
       transform="scale(0.26458333)"
       style="fill:#808000;fill-opacity:0;stroke:#322c4b;stroke-width:8.16378021;stroke-miterlimit:4;stroke-dasharray:none;stroke-opacity:0"
       d="M 374.76172,-3.4648438 C 276.88883,-3.4110649 262.21993,-1.3373475 190.78516,22.527344 -21.687227,93.509403 -172.51358,267.85772 -212.66797,488.90234 c -7.2783,40.06609 -10.08666,120.50748 -5.65039,161.87305 11.76853,109.73468 50.77295,208.30893 118.13867,298.57031 24.894836,33.35585 81.102112,90.133 112.884768,114.0293 76.294296,57.363 169.304242,98.6172 262.056642,116.2344 14.68406,2.789 43.92174,3.5698 110,2.9394 l 90,-0.8574 32.85742,-8.8359 c 91.94569,-24.7245 160.00461,-56.841 228.14258,-107.6582 114.36174,-85.29067 195.50395,-214.25478 226.58984,-360.13675 6.16308,-28.9226 6.69727,-38.14971 6.69727,-115.71485 0,-77.61686 -0.53208,-86.77295 -6.70899,-115.71484 C 944.20209,388.64652 905.86448,302.55834 856.03906,234.93359 835.64371,207.2523 781.96787,151.49058 750.47656,125.26758 680.27616,66.811298 587.18869,23.511058 484.76172,1.6679688 c -20.41449,-4.3534957 -37.94889,-5.1724035 -110,-5.1328126 z M 104.49805,632.08789 c 1.55249,-0.01 3.44085,0.56166 5.50195,1.93164 2.78665,1.85223 4.90671,4.39309 6.81836,7.09375 0.29144,0.41171 0.54542,0.84962 0.8418,1.25781 0.087,0.11981 0.42663,0.40901 0.30664,0.32227 -0.64251,-0.46568 -1.25277,-0.97349 -1.87891,-1.46094 -0.91492,0.0227 -1.82921,0.0437 -2.74414,0.0664 -9.8965,0.2434 13.76385,7.99023 3.9375,9.1914 -1.20659,0.14741 -2.41255,0.29566 -3.61914,0.44336 -1.12614,-0.61243 -2.32746,-1.10458 -3.37891,-1.83789 -0.99374,-0.69309 -2.75283,-4.07706 -3.90625,-5.17187 -0.73626,-0.69887 -1.58478,-1.26953 -2.37695,-1.9043 -5.793939,-4.64278 -4.159433,-9.90312 0.49805,-9.93164 z"
       inkscape:connector-curvature="0" />
    <path
       id="path4554"
       transform="scale(0.26458333)"
       style="fill:#808000;fill-opacity:0;stroke:#322c4b;stroke-width:8.16378021;stroke-miterlimit:4;stroke-dasharray:none;stroke-opacity:0"
       d="M 374.76172,-3.4648438 C 276.88883,-3.4110649 262.21993,-1.3373475 190.78516,22.527344 -21.687227,93.509403 -172.51358,267.85772 -212.66797,488.90234 c -7.2783,40.06609 -10.08666,120.50748 -5.65039,161.87305 11.76853,109.73468 50.77295,208.30893 118.13867,298.57031 24.894836,33.35585 81.102112,90.133 112.884768,114.0293 76.294296,57.363 169.304242,98.6172 262.056642,116.2344 14.68406,2.789 43.92174,3.5698 110,2.9394 l 90,-0.8574 32.85742,-8.8359 c 91.94569,-24.7245 160.00461,-56.841 228.14258,-107.6582 114.36174,-85.29067 195.50395,-214.25478 226.58984,-360.13675 6.16308,-28.9226 6.69727,-38.14971 6.69727,-115.71485 0,-77.61686 -0.53208,-86.77295 -6.70899,-115.71484 C 944.20209,388.64652 905.86448,302.55834 856.03906,234.93359 835.64371,207.2523 781.96787,151.49058 750.47656,125.26758 680.27616,66.811298 587.18869,23.511058 484.76172,1.6679688 c -20.41449,-4.3534957 -37.94889,-5.1724035 -110,-5.1328126 z M 104.49805,632.08789 c 1.55249,-0.01 3.44085,0.56166 5.50195,1.93164 2.78665,1.85223 4.90671,4.39309 6.81836,7.09375 0.29144,0.41171 0.54542,0.84962 0.8418,1.25781 0.087,0.11981 0.42663,0.40901 0.30664,0.32227 -0.64251,-0.46568 -1.25277,-0.97349 -1.87891,-1.46094 -0.91492,0.0227 -1.82921,0.0437 -2.74414,0.0664 -9.8965,0.2434 13.76385,7.99023 3.9375,9.1914 -1.20659,0.14741 -2.41255,0.29566 -3.61914,0.44336 -1.12614,-0.61243 -2.32746,-1.10458 -3.37891,-1.83789 -0.99374,-0.69309 -2.75283,-4.07706 -3.90625,-5.17187 -0.73626,-0.69887 -1.58478,-1.26953 -2.37695,-1.9043 -5.793939,-4.64278 -4.159433,-9.90312 0.49805,-9.93164 z"
       inkscape:connector-curvature="0" />
    <path
       id="path4556"
       transform="scale(0.26458333)"
       style="fill:#322c4b;fill-opacity:0;stroke:#322c4b;stroke-width:8.16378021;stroke-miterlimit:4;stroke-dasharray:none;stroke-opacity:0"
       d="m 373.61914,-3.4511719 c -83.65945,0.058742 -86.51878,0.2505384 -119.2832,8 C -13.654898,67.934232 -197.37686,278.13548 -219.33398,546.48828 c -13.87525,169.57877 49.85966,340.71777 172.953121,464.40822 84.999679,85.4118 200.617629,146.2166 319.999999,168.291 17.85789,3.301 42.23035,4.021 111.42969,3.2871 88.27712,-0.9362 88.68099,-0.9675 121.58984,-9.6738 79.12752,-20.9337 142.89312,-48.7845 201.66992,-88.082 147.40923,-98.55636 245.50446,-262.56848 261.25,-436.80083 3.9712,-43.94331 1.71596,-120.84114 -4.62304,-157.62891 C 941.79824,356.01434 873.13556,233.9637 768.30859,140.77539 710.60902,89.482029 637.11375,47.615275 560.76172,22.546875 488.51886,-1.1723706 471.6204,-3.5199839 373.61914,-3.4511719 Z M 104.49805,632.08789 c 1.55249,-0.01 3.44085,0.56166 5.50195,1.93164 2.78665,1.85223 4.90671,4.39309 6.81836,7.09375 0.29144,0.41171 0.54542,0.84962 0.8418,1.25781 0.087,0.11981 0.42663,0.40901 0.30664,0.32227 -0.64251,-0.46568 -1.25277,-0.97349 -1.87891,-1.46094 -0.91492,0.0227 -1.82921,0.0437 -2.74414,0.0664 -9.8965,0.2434 13.76385,7.99023 3.9375,9.1914 -1.20659,0.14741 -2.41255,0.29566 -3.61914,0.44336 -1.12614,-0.61243 -2.32746,-1.10458 -3.37891,-1.83789 -0.99374,-0.69309 -2.75283,-4.07706 -3.90625,-5.17187 -0.73626,-0.69887 -1.58478,-1.26953 -2.37695,-1.9043 -5.793939,-4.64278 -4.159433,-9.90312 0.49805,-9.93164 z"
       inkscape:connector-curvature="0" />
    <path
       id="path4558"
       transform="scale(0.26458333)"
       style="fill:#322c4b;fill-opacity:0;stroke:#322c4b;stroke-width:8.16378021;stroke-miterlimit:4;stroke-dasharray:none;stroke-opacity:0"
       d="m 373.61914,-3.4511719 c -83.65945,0.058742 -86.51878,0.2505384 -119.2832,8 C -13.654898,67.934232 -197.37686,278.13548 -219.33398,546.48828 c -13.87525,169.57877 49.85966,340.71777 172.953121,464.40822 84.999679,85.4118 200.617629,146.2166 319.999999,168.291 17.85789,3.301 42.23035,4.021 111.42969,3.2871 88.27712,-0.9362 88.68099,-0.9675 121.58984,-9.6738 79.12752,-20.9337 142.89312,-48.7845 201.66992,-88.082 147.40923,-98.55636 245.50446,-262.56848 261.25,-436.80083 3.9712,-43.94331 1.71596,-120.84114 -4.62304,-157.62891 C 941.79824,356.01434 873.13556,233.9637 768.30859,140.77539 710.60902,89.482029 637.11375,47.615275 560.76172,22.546875 488.51886,-1.1723706 471.6204,-3.5199839 373.61914,-3.4511719 Z M 104.49805,632.08789 c 1.55249,-0.01 3.44085,0.56166 5.50195,1.93164 2.78665,1.85223 4.90671,4.39309 6.81836,7.09375 0.29144,0.41171 0.54542,0.84962 0.8418,1.25781 0.087,0.11981 0.42663,0.40901 0.30664,0.32227 -0.64251,-0.46568 -1.25277,-0.97349 -1.87891,-1.46094 -0.91492,0.0227 -1.82921,0.0437 -2.74414,0.0664 -9.8965,0.2434 13.76385,7.99023 3.9375,9.1914 -1.20659,0.14741 -2.41255,0.29566 -3.61914,0.44336 -1.12614,-0.61243 -2.32746,-1.10458 -3.37891,-1.83789 -0.99374,-0.69309 -2.75283,-4.07706 -3.90625,-5.17187 -0.73626,-0.69887 -1.58478,-1.26953 -2.37695,-1.9043 -5.793939,-4.64278 -4.159433,-9.90312 0.49805,-9.93164 z"
       inkscape:connector-curvature="0" />
    <path
       id="path4560"
       transform="scale(0.26458333)"
       style="fill:#322c4b;fill-opacity:0;stroke:#322c4b;stroke-width:8.16378021;stroke-miterlimit:4;stroke-dasharray:none;stroke-opacity:0"
       d="m 373.61914,-3.4511719 c -83.65945,0.058742 -86.51878,0.2505384 -119.2832,8 C -13.654898,67.934232 -197.37686,278.13548 -219.33398,546.48828 c -13.87525,169.57877 49.85966,340.71777 172.953121,464.40822 84.999679,85.4118 200.617629,146.2166 319.999999,168.291 17.85789,3.301 42.23035,4.021 111.42969,3.2871 88.27712,-0.9362 88.68099,-0.9675 121.58984,-9.6738 79.12752,-20.9337 142.89312,-48.7845 201.66992,-88.082 147.40923,-98.55636 245.50446,-262.56848 261.25,-436.80083 3.9712,-43.94331 1.71596,-120.84114 -4.62304,-157.62891 C 941.79824,356.01434 873.13556,233.9637 768.30859,140.77539 710.60902,89.482029 637.11375,47.615275 560.76172,22.546875 488.51886,-1.1723706 471.6204,-3.5199839 373.61914,-3.4511719 Z M 104.49805,632.08789 c 1.55249,-0.01 3.44085,0.56166 5.50195,1.93164 2.78665,1.85223 4.90671,4.39309 6.81836,7.09375 0.29144,0.41171 0.54542,0.84962 0.8418,1.25781 0.087,0.11981 0.42663,0.40901 0.30664,0.32227 -0.64251,-0.46568 -1.25277,-0.97349 -1.87891,-1.46094 -0.91492,0.0227 -1.82921,0.0437 -2.74414,0.0664 -9.8965,0.2434 13.76385,7.99023 3.9375,9.1914 -1.20659,0.14741 -2.41255,0.29566 -3.61914,0.44336 -1.12614,-0.61243 -2.32746,-1.10458 -3.37891,-1.83789 -0.99374,-0.69309 -2.75283,-4.07706 -3.90625,-5.17187 -0.73626,-0.69887 -1.58478,-1.26953 -2.37695,-1.9043 -5.793939,-4.64278 -4.159433,-9.90312 0.49805,-9.93164 z"
       inkscape:connector-curvature="0" />
    <path
       id="path4562"
       transform="scale(0.26458333)"
       style="fill:#322c4b;fill-opacity:0;stroke:#322c4b;stroke-width:8.16378021;stroke-miterlimit:4;stroke-dasharray:none;stroke-opacity:0"
       d="m 373.61914,-3.4511719 c -83.65945,0.058742 -86.51878,0.2505384 -119.2832,8 C -13.654898,67.934232 -197.37686,278.13548 -219.33398,546.48828 c -13.87525,169.57877 49.85966,340.71777 172.953121,464.40822 84.999679,85.4118 200.617629,146.2166 319.999999,168.291 17.85789,3.301 42.23035,4.021 111.42969,3.2871 88.27712,-0.9362 88.68099,-0.9675 121.58984,-9.6738 79.12752,-20.9337 142.89312,-48.7845 201.66992,-88.082 147.40923,-98.55636 245.50446,-262.56848 261.25,-436.80083 3.9712,-43.94331 1.71596,-120.84114 -4.62304,-157.62891 C 941.79824,356.01434 873.13556,233.9637 768.30859,140.77539 710.60902,89.482029 637.11375,47.615275 560.76172,22.546875 488.51886,-1.1723706 471.6204,-3.5199839 373.61914,-3.4511719 Z M 104.49805,632.08789 c 1.55249,-0.01 3.44085,0.56166 5.50195,1.93164 2.78665,1.85223 4.90671,4.39309 6.81836,7.09375 0.29144,0.41171 0.54542,0.84962 0.8418,1.25781 0.087,0.11981 0.42663,0.40901 0.30664,0.32227 -0.64251,-0.46568 -1.25277,-0.97349 -1.87891,-1.46094 -0.91492,0.0227 -1.82921,0.0437 -2.74414,0.0664 -9.8965,0.2434 13.76385,7.99023 3.9375,9.1914 -1.20659,0.14741 -2.41255,0.29566 -3.61914,0.44336 -1.12614,-0.61243 -2.32746,-1.10458 -3.37891,-1.83789 -0.99374,-0.69309 -2.75283,-4.07706 -3.90625,-5.17187 -0.73626,-0.69887 -1.58478,-1.26953 -2.37695,-1.9043 -5.793939,-4.64278 -4.159433,-9.90312 0.49805,-9.93164 z"
       inkscape:connector-curvature="0" />
    <path
       id="path4564"
       transform="scale(0.26458333)"
       style="fill:#322c4b;fill-opacity:0;stroke:#322c4b;stroke-width:8.16378021;stroke-miterlimit:4;stroke-dasharray:none;stroke-opacity:0"
       d="m 373.61914,-3.4511719 c -83.65945,0.058742 -86.51878,0.2505384 -119.2832,8 C -13.654898,67.934232 -197.37686,278.13548 -219.33398,546.48828 c -13.87525,169.57877 49.85966,340.71777 172.953121,464.40822 84.999679,85.4118 200.617629,146.2166 319.999999,168.291 17.85789,3.301 42.23035,4.021 111.42969,3.2871 88.27712,-0.9362 88.68099,-0.9675 121.58984,-9.6738 79.12752,-20.9337 142.89312,-48.7845 201.66992,-88.082 147.40923,-98.55636 245.50446,-262.56848 261.25,-436.80083 3.9712,-43.94331 1.71596,-120.84114 -4.62304,-157.62891 C 941.79824,356.01434 873.13556,233.9637 768.30859,140.77539 710.60902,89.482029 637.11375,47.615275 560.76172,22.546875 488.51886,-1.1723706 471.6204,-3.5199839 373.61914,-3.4511719 Z M 104.49805,632.08789 c 1.55249,-0.01 3.44085,0.56166 5.50195,1.93164 2.78665,1.85223 4.90671,4.39309 6.81836,7.09375 0.29144,0.41171 0.54542,0.84962 0.8418,1.25781 0.087,0.11981 0.42663,0.40901 0.30664,0.32227 -0.64251,-0.46568 -1.25277,-0.97349 -1.87891,-1.46094 -0.91492,0.0227 -1.82921,0.0437 -2.74414,0.0664 -9.8965,0.2434 13.76385,7.99023 3.9375,9.1914 -1.20659,0.14741 -2.41255,0.29566 -3.61914,0.44336 -1.12614,-0.61243 -2.32746,-1.10458 -3.37891,-1.83789 -0.99374,-0.69309 -2.75283,-4.07706 -3.90625,-5.17187 -0.73626,-0.69887 -1.58478,-1.26953 -2.37695,-1.9043 -5.793939,-4.64278 -4.159433,-9.90312 0.49805,-9.93164 z"
       inkscape:connector-curvature="0" />
    <path
       id="path4566"
       transform="scale(0.26458333)"
       style="fill:#322c4b;fill-opacity:0;stroke:#322c4b;stroke-width:8.16378021;stroke-miterlimit:4;stroke-dasharray:none;stroke-opacity:0"
       d="m 373.61914,-3.4511719 c -83.65945,0.058742 -86.51878,0.2505384 -119.2832,8 C -13.654898,67.934232 -197.37686,278.13548 -219.33398,546.48828 c -13.87525,169.57877 49.85966,340.71777 172.953121,464.40822 84.999679,85.4118 200.617629,146.2166 319.999999,168.291 17.85789,3.301 42.23035,4.021 111.42969,3.2871 88.27712,-0.9362 88.68099,-0.9675 121.58984,-9.6738 79.12752,-20.9337 142.89312,-48.7845 201.66992,-88.082 147.40923,-98.55636 245.50446,-262.56848 261.25,-436.80083 3.9712,-43.94331 1.71596,-120.84114 -4.62304,-157.62891 C 941.79824,356.01434 873.13556,233.9637 768.30859,140.77539 710.60902,89.482029 637.11375,47.615275 560.76172,22.546875 488.51886,-1.1723706 471.6204,-3.5199839 373.61914,-3.4511719 Z M 104.49805,632.08789 c 1.55249,-0.01 3.44085,0.56166 5.50195,1.93164 2.78665,1.85223 4.90671,4.39309 6.81836,7.09375 0.29144,0.41171 0.54542,0.84962 0.8418,1.25781 0.087,0.11981 0.42663,0.40901 0.30664,0.32227 -0.64251,-0.46568 -1.25277,-0.97349 -1.87891,-1.46094 -0.91492,0.0227 -1.82921,0.0437 -2.74414,0.0664 -9.8965,0.2434 13.76385,7.99023 3.9375,9.1914 -1.20659,0.14741 -2.41255,0.29566 -3.61914,0.44336 -1.12614,-0.61243 -2.32746,-1.10458 -3.37891,-1.83789 -0.99374,-0.69309 -2.75283,-4.07706 -3.90625,-5.17187 -0.73626,-0.69887 -1.58478,-1.26953 -2.37695,-1.9043 -5.793939,-4.64278 -4.159433,-9.90312 0.49805,-9.93164 z"
       inkscape:connector-curvature="0" />
    <path
       id="path4568"
       transform="scale(0.26458333)"
       style="fill:#322c4b;fill-opacity:0;stroke:#322c4b;stroke-width:8.16378021;stroke-miterlimit:4;stroke-dasharray:none;stroke-opacity:0"
       d="m 373.61914,-3.4511719 c -83.65945,0.058742 -86.51878,0.2505384 -119.2832,8 C -13.654898,67.934232 -197.37686,278.13548 -219.33398,546.48828 c -13.87525,169.57877 49.85966,340.71777 172.953121,464.40822 84.999679,85.4118 200.617629,146.2166 319.999999,168.291 17.85789,3.301 42.23035,4.021 111.42969,3.2871 88.27712,-0.9362 88.68099,-0.9675 121.58984,-9.6738 79.12752,-20.9337 142.89312,-48.7845 201.66992,-88.082 147.40923,-98.55636 245.50446,-262.56848 261.25,-436.80083 3.9712,-43.94331 1.71596,-120.84114 -4.62304,-157.62891 C 941.79824,356.01434 873.13556,233.9637 768.30859,140.77539 710.60902,89.482029 637.11375,47.615275 560.76172,22.546875 488.51886,-1.1723706 471.6204,-3.5199839 373.61914,-3.4511719 Z M 104.49805,632.08789 c 1.55249,-0.01 3.44085,0.56166 5.50195,1.93164 2.78665,1.85223 4.90671,4.39309 6.81836,7.09375 0.29144,0.41171 0.54542,0.84962 0.8418,1.25781 0.087,0.11981 0.42663,0.40901 0.30664,0.32227 -0.64251,-0.46568 -1.25277,-0.97349 -1.87891,-1.46094 -0.91492,0.0227 -1.82921,0.0437 -2.74414,0.0664 -9.8965,0.2434 13.76385,7.99023 3.9375,9.1914 -1.20659,0.14741 -2.41255,0.29566 -3.61914,0.44336 -1.12614,-0.61243 -2.32746,-1.10458 -3.37891,-1.83789 -0.99374,-0.69309 -2.75283,-4.07706 -3.90625,-5.17187 -0.73626,-0.69887 -1.58478,-1.26953 -2.37695,-1.9043 -5.793939,-4.64278 -4.159433,-9.90312 0.49805,-9.93164 z"
       inkscape:connector-curvature="0" />
    <path
       id="path4570"
       transform="scale(0.26458333)"
       style="fill:#322c4b;fill-opacity:0;stroke:#322c4b;stroke-width:8.16378021;stroke-miterlimit:4;stroke-dasharray:none;stroke-opacity:0"
       d="m 373.61914,-3.4511719 c -83.65945,0.058742 -86.51878,0.2505384 -119.2832,8 C -13.654898,67.934232 -197.37686,278.13548 -219.33398,546.48828 c -13.87525,169.57877 49.85966,340.71777 172.953121,464.40822 84.999679,85.4118 200.617629,146.2166 319.999999,168.291 17.85789,3.301 42.23035,4.021 111.42969,3.2871 88.27712,-0.9362 88.68099,-0.9675 121.58984,-9.6738 79.12752,-20.9337 142.89312,-48.7845 201.66992,-88.082 147.40923,-98.55636 245.50446,-262.56848 261.25,-436.80083 3.9712,-43.94331 1.71596,-120.84114 -4.62304,-157.62891 C 941.79824,356.01434 873.13556,233.9637 768.30859,140.77539 710.60902,89.482029 637.11375,47.615275 560.76172,22.546875 488.51886,-1.1723706 471.6204,-3.5199839 373.61914,-3.4511719 Z M 104.49805,632.08789 c 1.55249,-0.01 3.44085,0.56166 5.50195,1.93164 2.78665,1.85223 4.90671,4.39309 6.81836,7.09375 0.29144,0.41171 0.54542,0.84962 0.8418,1.25781 0.087,0.11981 0.42663,0.40901 0.30664,0.32227 -0.64251,-0.46568 -1.25277,-0.97349 -1.87891,-1.46094 -0.91492,0.0227 -1.82921,0.0437 -2.74414,0.0664 -9.8965,0.2434 13.76385,7.99023 3.9375,9.1914 -1.20659,0.14741 -2.41255,0.29566 -3.61914,0.44336 -1.12614,-0.61243 -2.32746,-1.10458 -3.37891,-1.83789 -0.99374,-0.69309 -2.75283,-4.07706 -3.90625,-5.17187 -0.73626,-0.69887 -1.58478,-1.26953 -2.37695,-1.9043 -5.793939,-4.64278 -4.159433,-9.90312 0.49805,-9.93164 z"
       inkscape:connector-curvature="0" />
    <path
       id="path4572"
       transform="scale(0.26458333)"
       style="fill:#322c4b;fill-opacity:0;stroke:#322c4b;stroke-width:8.16378021;stroke-miterlimit:4;stroke-dasharray:none;stroke-opacity:0"
       d="m 373.61914,-3.4511719 c -83.65945,0.058742 -86.51878,0.2505384 -119.2832,8 C -13.654898,67.934232 -197.37686,278.13548 -219.33398,546.48828 c -13.87525,169.57877 49.85966,340.71777 172.953121,464.40822 84.999679,85.4118 200.617629,146.2166 319.999999,168.291 17.85789,3.301 42.23035,4.021 111.42969,3.2871 88.27712,-0.9362 88.68099,-0.9675 121.58984,-9.6738 79.12752,-20.9337 142.89312,-48.7845 201.66992,-88.082 147.40923,-98.55636 245.50446,-262.56848 261.25,-436.80083 3.9712,-43.94331 1.71596,-120.84114 -4.62304,-157.62891 C 941.79824,356.01434 873.13556,233.9637 768.30859,140.77539 710.60902,89.482029 637.11375,47.615275 560.76172,22.546875 488.51886,-1.1723706 471.6204,-3.5199839 373.61914,-3.4511719 Z M 104.49805,632.08789 c 1.55249,-0.01 3.44085,0.56166 5.50195,1.93164 2.78665,1.85223 4.90671,4.39309 6.81836,7.09375 0.29144,0.41171 0.54542,0.84962 0.8418,1.25781 0.087,0.11981 0.42663,0.40901 0.30664,0.32227 -0.64251,-0.46568 -1.25277,-0.97349 -1.87891,-1.46094 -0.91492,0.0227 -1.82921,0.0437 -2.74414,0.0664 -9.8965,0.2434 13.76385,7.99023 3.9375,9.1914 -1.20659,0.14741 -2.41255,0.29566 -3.61914,0.44336 -1.12614,-0.61243 -2.32746,-1.10458 -3.37891,-1.83789 -0.99374,-0.69309 -2.75283,-4.07706 -3.90625,-5.17187 -0.73626,-0.69887 -1.58478,-1.26953 -2.37695,-1.9043 -5.793939,-4.64278 -4.159433,-9.90312 0.49805,-9.93164 z"
       inkscape:connector-curvature="0" />
    <path
       id="path4574"
       transform="scale(0.26458333)"
       style="fill:#322c4b;fill-opacity:0;stroke:#322c4b;stroke-width:8.16378021;stroke-miterlimit:4;stroke-dasharray:none;stroke-opacity:0"
       d="m 373.61914,-3.4511719 c -83.65945,0.058742 -86.51878,0.2505384 -119.2832,8 C -13.654898,67.934232 -197.37686,278.13548 -219.33398,546.48828 c -13.87525,169.57877 49.85966,340.71777 172.953121,464.40822 84.999679,85.4118 200.617629,146.2166 319.999999,168.291 17.85789,3.301 42.23035,4.021 111.42969,3.2871 88.27712,-0.9362 88.68099,-0.9675 121.58984,-9.6738 79.12752,-20.9337 142.89312,-48.7845 201.66992,-88.082 147.40923,-98.55636 245.50446,-262.56848 261.25,-436.80083 3.9712,-43.94331 1.71596,-120.84114 -4.62304,-157.62891 C 941.79824,356.01434 873.13556,233.9637 768.30859,140.77539 710.60902,89.482029 637.11375,47.615275 560.76172,22.546875 488.51886,-1.1723706 471.6204,-3.5199839 373.61914,-3.4511719 Z M 104.49805,632.08789 c 1.55249,-0.01 3.44085,0.56166 5.50195,1.93164 2.78665,1.85223 4.90671,4.39309 6.81836,7.09375 0.29144,0.41171 0.54542,0.84962 0.8418,1.25781 0.087,0.11981 0.42663,0.40901 0.30664,0.32227 -0.64251,-0.46568 -1.25277,-0.97349 -1.87891,-1.46094 -0.91492,0.0227 -1.82921,0.0437 -2.74414,0.0664 -9.8965,0.2434 13.76385,7.99023 3.9375,9.1914 -1.20659,0.14741 -2.41255,0.29566 -3.61914,0.44336 -1.12614,-0.61243 -2.32746,-1.10458 -3.37891,-1.83789 -0.99374,-0.69309 -2.75283,-4.07706 -3.90625,-5.17187 -0.73626,-0.69887 -1.58478,-1.26953 -2.37695,-1.9043 -5.793939,-4.64278 -4.159433,-9.90312 0.49805,-9.93164 z"
       inkscape:connector-curvature="0" />
    <path
       id="path4576"
       transform="scale(0.26458333)"
       style="fill:#322c4b;fill-opacity:0;stroke:#322c4b;stroke-width:8.16378021;stroke-miterlimit:4;stroke-dasharray:none;stroke-opacity:0"
       d="m 373.61914,-3.4511719 c -83.65945,0.058742 -86.51878,0.2505384 -119.2832,8 C -13.654898,67.934232 -197.37686,278.13548 -219.33398,546.48828 c -13.87525,169.57877 49.85966,340.71777 172.953121,464.40822 84.999679,85.4118 200.617629,146.2166 319.999999,168.291 17.85789,3.301 42.23035,4.021 111.42969,3.2871 88.27712,-0.9362 88.68099,-0.9675 121.58984,-9.6738 79.12752,-20.9337 142.89312,-48.7845 201.66992,-88.082 147.40923,-98.55636 245.50446,-262.56848 261.25,-436.80083 3.9712,-43.94331 1.71596,-120.84114 -4.62304,-157.62891 C 941.79824,356.01434 873.13556,233.9637 768.30859,140.77539 710.60902,89.482029 637.11375,47.615275 560.76172,22.546875 488.51886,-1.1723706 471.6204,-3.5199839 373.61914,-3.4511719 Z M 104.49805,632.08789 c 1.55249,-0.01 3.44085,0.56166 5.50195,1.93164 2.78665,1.85223 4.90671,4.39309 6.81836,7.09375 0.29144,0.41171 0.54542,0.84962 0.8418,1.25781 0.087,0.11981 0.42663,0.40901 0.30664,0.32227 -0.64251,-0.46568 -1.25277,-0.97349 -1.87891,-1.46094 -0.91492,0.0227 -1.82921,0.0437 -2.74414,0.0664 -9.8965,0.2434 13.76385,7.99023 3.9375,9.1914 -1.20659,0.14741 -2.41255,0.29566 -3.61914,0.44336 -1.12614,-0.61243 -2.32746,-1.10458 -3.37891,-1.83789 -0.99374,-0.69309 -2.75283,-4.07706 -3.90625,-5.17187 -0.73626,-0.69887 -1.58478,-1.26953 -2.37695,-1.9043 -5.793939,-4.64278 -4.159433,-9.90312 0.49805,-9.93164 z"
       inkscape:connector-curvature="0" />
    <path
       id="path4578"
       transform="scale(0.26458333)"
       style="fill:#322c4b;fill-opacity:0;stroke:#322c4b;stroke-width:8.16378021;stroke-miterlimit:4;stroke-dasharray:none;stroke-opacity:0"
       d="m 373.61914,-3.4511719 c -83.65945,0.058742 -86.51878,0.2505384 -119.2832,8 C -13.654898,67.934232 -197.37686,278.13548 -219.33398,546.48828 c -13.87525,169.57877 49.85966,340.71777 172.953121,464.40822 84.999679,85.4118 200.617629,146.2166 319.999999,168.291 17.85789,3.301 42.23035,4.021 111.42969,3.2871 88.27712,-0.9362 88.68099,-0.9675 121.58984,-9.6738 79.12752,-20.9337 142.89312,-48.7845 201.66992,-88.082 147.40923,-98.55636 245.50446,-262.56848 261.25,-436.80083 3.9712,-43.94331 1.71596,-120.84114 -4.62304,-157.62891 C 941.79824,356.01434 873.13556,233.9637 768.30859,140.77539 710.60902,89.482029 637.11375,47.615275 560.76172,22.546875 488.51886,-1.1723706 471.6204,-3.5199839 373.61914,-3.4511719 Z M 104.49805,632.08789 c 1.55249,-0.01 3.44085,0.56166 5.50195,1.93164 2.78665,1.85223 4.90671,4.39309 6.81836,7.09375 0.29144,0.41171 0.54542,0.84962 0.8418,1.25781 0.087,0.11981 0.42663,0.40901 0.30664,0.32227 -0.64251,-0.46568 -1.25277,-0.97349 -1.87891,-1.46094 -0.91492,0.0227 -1.82921,0.0437 -2.74414,0.0664 -9.8965,0.2434 13.76385,7.99023 3.9375,9.1914 -1.20659,0.14741 -2.41255,0.29566 -3.61914,0.44336 -1.12614,-0.61243 -2.32746,-1.10458 -3.37891,-1.83789 -0.99374,-0.69309 -2.75283,-4.07706 -3.90625,-5.17187 -0.73626,-0.69887 -1.58478,-1.26953 -2.37695,-1.9043 -5.793939,-4.64278 -4.159433,-9.90312 0.49805,-9.93164 z"
       inkscape:connector-curvature="0" />
    <path
       id="path4580"
       transform="scale(0.26458333)"
       style="fill:#322c4b;fill-opacity:0;stroke:#322c4b;stroke-width:8.16378021;stroke-miterlimit:4;stroke-dasharray:none;stroke-opacity:0"
       d="m 373.61914,-3.4511719 c -83.65945,0.058742 -86.51878,0.2505384 -119.2832,8 C -13.654898,67.934232 -197.37686,278.13548 -219.33398,546.48828 c -13.87525,169.57877 49.85966,340.71777 172.953121,464.40822 84.999679,85.4118 200.617629,146.2166 319.999999,168.291 17.85789,3.301 42.23035,4.021 111.42969,3.2871 88.27712,-0.9362 88.68099,-0.9675 121.58984,-9.6738 79.12752,-20.9337 142.89312,-48.7845 201.66992,-88.082 147.40923,-98.55636 245.50446,-262.56848 261.25,-436.80083 3.9712,-43.94331 1.71596,-120.84114 -4.62304,-157.62891 C 941.79824,356.01434 873.13556,233.9637 768.30859,140.77539 710.60902,89.482029 637.11375,47.615275 560.76172,22.546875 488.51886,-1.1723706 471.6204,-3.5199839 373.61914,-3.4511719 Z M 104.49805,632.08789 c 1.55249,-0.01 3.44085,0.56166 5.50195,1.93164 2.78665,1.85223 4.90671,4.39309 6.81836,7.09375 0.29144,0.41171 0.54542,0.84962 0.8418,1.25781 0.087,0.11981 0.42663,0.40901 0.30664,0.32227 -0.64251,-0.46568 -1.25277,-0.97349 -1.87891,-1.46094 -0.91492,0.0227 -1.82921,0.0437 -2.74414,0.0664 -9.8965,0.2434 13.76385,7.99023 3.9375,9.1914 -1.20659,0.14741 -2.41255,0.29566 -3.61914,0.44336 -1.12614,-0.61243 -2.32746,-1.10458 -3.37891,-1.83789 -0.99374,-0.69309 -2.75283,-4.07706 -3.90625,-5.17187 -0.73626,-0.69887 -1.58478,-1.26953 -2.37695,-1.9043 -5.793939,-4.64278 -4.159433,-9.90312 0.49805,-9.93164 z"
       inkscape:connector-curvature="0" />
    <path
       id="path4582"
       transform="scale(0.26458333)"
       style="fill:#322c4b;fill-opacity:0;stroke:#322c4b;stroke-width:8.16378021;stroke-miterlimit:4;stroke-dasharray:none;stroke-opacity:0"
       d="m 373.61914,-3.4511719 c -83.65945,0.058742 -86.51878,0.2505384 -119.2832,8 C -13.654898,67.934232 -197.37686,278.13548 -219.33398,546.48828 c -13.87525,169.57877 49.85966,340.71777 172.953121,464.40822 84.999679,85.4118 200.617629,146.2166 319.999999,168.291 17.85789,3.301 42.23035,4.021 111.42969,3.2871 88.27712,-0.9362 88.68099,-0.9675 121.58984,-9.6738 79.12752,-20.9337 142.89312,-48.7845 201.66992,-88.082 147.40923,-98.55636 245.50446,-262.56848 261.25,-436.80083 3.9712,-43.94331 1.71596,-120.84114 -4.62304,-157.62891 C 941.79824,356.01434 873.13556,233.9637 768.30859,140.77539 710.60902,89.482029 637.11375,47.615275 560.76172,22.546875 488.51886,-1.1723706 471.6204,-3.5199839 373.61914,-3.4511719 Z M 104.49805,632.08789 c 1.55249,-0.01 3.44085,0.56166 5.50195,1.93164 2.78665,1.85223 4.90671,4.39309 6.81836,7.09375 0.29144,0.41171 0.54542,0.84962 0.8418,1.25781 0.087,0.11981 0.42663,0.40901 0.30664,0.32227 -0.64251,-0.46568 -1.25277,-0.97349 -1.87891,-1.46094 -0.91492,0.0227 -1.82921,0.0437 -2.74414,0.0664 -9.8965,0.2434 13.76385,7.99023 3.9375,9.1914 -1.20659,0.14741 -2.41255,0.29566 -3.61914,0.44336 -1.12614,-0.61243 -2.32746,-1.10458 -3.37891,-1.83789 -0.99374,-0.69309 -2.75283,-4.07706 -3.90625,-5.17187 -0.73626,-0.69887 -1.58478,-1.26953 -2.37695,-1.9043 -5.793939,-4.64278 -4.159433,-9.90312 0.49805,-9.93164 z"
       inkscape:connector-curvature="0" />
    <path
       id="path4584"
       transform="scale(0.26458333)"
       style="fill:#322c4b;fill-opacity:0;stroke:#322c4b;stroke-width:8.16378021;stroke-miterlimit:4;stroke-dasharray:none;stroke-opacity:0"
       d="m 373.61914,-3.4511719 c -83.65945,0.058742 -86.51878,0.2505384 -119.2832,8 C -13.654898,67.934232 -197.37686,278.13548 -219.33398,546.48828 c -13.87525,169.57877 49.85966,340.71777 172.953121,464.40822 84.999679,85.4118 200.617629,146.2166 319.999999,168.291 17.85789,3.301 42.23035,4.021 111.42969,3.2871 88.27712,-0.9362 88.68099,-0.9675 121.58984,-9.6738 79.12752,-20.9337 142.89312,-48.7845 201.66992,-88.082 147.40923,-98.55636 245.50446,-262.56848 261.25,-436.80083 3.9712,-43.94331 1.71596,-120.84114 -4.62304,-157.62891 C 941.79824,356.01434 873.13556,233.9637 768.30859,140.77539 710.60902,89.482029 637.11375,47.615275 560.76172,22.546875 488.51886,-1.1723706 471.6204,-3.5199839 373.61914,-3.4511719 Z M 104.49805,632.08789 c 1.55249,-0.01 3.44085,0.56166 5.50195,1.93164 2.78665,1.85223 4.90671,4.39309 6.81836,7.09375 0.29144,0.41171 0.54542,0.84962 0.8418,1.25781 0.087,0.11981 0.42663,0.40901 0.30664,0.32227 -0.64251,-0.46568 -1.25277,-0.97349 -1.87891,-1.46094 -0.91492,0.0227 -1.82921,0.0437 -2.74414,0.0664 -9.8965,0.2434 13.76385,7.99023 3.9375,9.1914 -1.20659,0.14741 -2.41255,0.29566 -3.61914,0.44336 -1.12614,-0.61243 -2.32746,-1.10458 -3.37891,-1.83789 -0.99374,-0.69309 -2.75283,-4.07706 -3.90625,-5.17187 -0.73626,-0.69887 -1.58478,-1.26953 -2.37695,-1.9043 -5.793939,-4.64278 -4.159433,-9.90312 0.49805,-9.93164 z"
       inkscape:connector-curvature="0" />
    <path
       id="path4586"
       transform="scale(0.26458333)"
       style="fill:#322c4b;fill-opacity:0;stroke:#322c4b;stroke-width:8.16378021;stroke-miterlimit:4;stroke-dasharray:none;stroke-opacity:0"
       d="m 373.61914,-3.4511719 c -83.65945,0.058742 -86.51878,0.2505384 -119.2832,8 C -13.654898,67.934232 -197.37686,278.13548 -219.33398,546.48828 c -13.87525,169.57877 49.85966,340.71777 172.953121,464.40822 84.999679,85.4118 200.617629,146.2166 319.999999,168.291 17.85789,3.301 42.23035,4.021 111.42969,3.2871 88.27712,-0.9362 88.68099,-0.9675 121.58984,-9.6738 79.12752,-20.9337 142.89312,-48.7845 201.66992,-88.082 147.40923,-98.55636 245.50446,-262.56848 261.25,-436.80083 3.9712,-43.94331 1.71596,-120.84114 -4.62304,-157.62891 C 941.79824,356.01434 873.13556,233.9637 768.30859,140.77539 710.60902,89.482029 637.11375,47.615275 560.76172,22.546875 488.51886,-1.1723706 471.6204,-3.5199839 373.61914,-3.4511719 Z M 104.49805,632.08789 c 1.55249,-0.01 3.44085,0.56166 5.50195,1.93164 2.78665,1.85223 4.90671,4.39309 6.81836,7.09375 0.29144,0.41171 0.54542,0.84962 0.8418,1.25781 0.087,0.11981 0.42663,0.40901 0.30664,0.32227 -0.64251,-0.46568 -1.25277,-0.97349 -1.87891,-1.46094 -0.91492,0.0227 -1.82921,0.0437 -2.74414,0.0664 -9.8965,0.2434 13.76385,7.99023 3.9375,9.1914 -1.20659,0.14741 -2.41255,0.29566 -3.61914,0.44336 -1.12614,-0.61243 -2.32746,-1.10458 -3.37891,-1.83789 -0.99374,-0.69309 -2.75283,-4.07706 -3.90625,-5.17187 -0.73626,-0.69887 -1.58478,-1.26953 -2.37695,-1.9043 -5.793939,-4.64278 -4.159433,-9.90312 0.49805,-9.93164 z"
       inkscape:connector-curvature="0" />
    <path
       id="path4588"
       transform="scale(0.26458333)"
       style="fill:#322c4b;fill-opacity:0;stroke:#322c4b;stroke-width:8.16378021;stroke-miterlimit:4;stroke-dasharray:none;stroke-opacity:0"
       d="m 373.61914,-3.4511719 c -83.65945,0.058742 -86.51878,0.2505384 -119.2832,8 C -13.654898,67.934232 -197.37686,278.13548 -219.33398,546.48828 c -13.87525,169.57877 49.85966,340.71777 172.953121,464.40822 84.999679,85.4118 200.617629,146.2166 319.999999,168.291 17.85789,3.301 42.23035,4.021 111.42969,3.2871 88.27712,-0.9362 88.68099,-0.9675 121.58984,-9.6738 79.12752,-20.9337 142.89312,-48.7845 201.66992,-88.082 147.40923,-98.55636 245.50446,-262.56848 261.25,-436.80083 3.9712,-43.94331 1.71596,-120.84114 -4.62304,-157.62891 C 941.79824,356.01434 873.13556,233.9637 768.30859,140.77539 710.60902,89.482029 637.11375,47.615275 560.76172,22.546875 488.51886,-1.1723706 471.6204,-3.5199839 373.61914,-3.4511719 Z M 104.49805,632.08789 c 1.55249,-0.01 3.44085,0.56166 5.50195,1.93164 2.78665,1.85223 4.90671,4.39309 6.81836,7.09375 0.29144,0.41171 0.54542,0.84962 0.8418,1.25781 0.087,0.11981 0.42663,0.40901 0.30664,0.32227 -0.64251,-0.46568 -1.25277,-0.97349 -1.87891,-1.46094 -0.91492,0.0227 -1.82921,0.0437 -2.74414,0.0664 -9.8965,0.2434 13.76385,7.99023 3.9375,9.1914 -1.20659,0.14741 -2.41255,0.29566 -3.61914,0.44336 -1.12614,-0.61243 -2.32746,-1.10458 -3.37891,-1.83789 -0.99374,-0.69309 -2.75283,-4.07706 -3.90625,-5.17187 -0.73626,-0.69887 -1.58478,-1.26953 -2.37695,-1.9043 -5.793939,-4.64278 -4.159433,-9.90312 0.49805,-9.93164 z"
       inkscape:connector-curvature="0" />
    <path
       id="path4590"
       transform="scale(0.26458333)"
       style="fill:#322c4b;fill-opacity:0;stroke:#322c4b;stroke-width:8.16378021;stroke-miterlimit:4;stroke-dasharray:none;stroke-opacity:0"
       d="m 373.61914,-3.4511719 c -83.65945,0.058742 -86.51878,0.2505384 -119.2832,8 C -13.654898,67.934232 -197.37686,278.13548 -219.33398,546.48828 c -13.87525,169.57877 49.85966,340.71777 172.953121,464.40822 84.999679,85.4118 200.617629,146.2166 319.999999,168.291 17.85789,3.301 42.23035,4.021 111.42969,3.2871 88.27712,-0.9362 88.68099,-0.9675 121.58984,-9.6738 79.12752,-20.9337 142.89312,-48.7845 201.66992,-88.082 147.40923,-98.55636 245.50446,-262.56848 261.25,-436.80083 3.9712,-43.94331 1.71596,-120.84114 -4.62304,-157.62891 C 941.79824,356.01434 873.13556,233.9637 768.30859,140.77539 710.60902,89.482029 637.11375,47.615275 560.76172,22.546875 488.51886,-1.1723706 471.6204,-3.5199839 373.61914,-3.4511719 Z M 104.49805,632.08789 c 1.55249,-0.01 3.44085,0.56166 5.50195,1.93164 2.78665,1.85223 4.90671,4.39309 6.81836,7.09375 0.29144,0.41171 0.54542,0.84962 0.8418,1.25781 0.087,0.11981 0.42663,0.40901 0.30664,0.32227 -0.64251,-0.46568 -1.25277,-0.97349 -1.87891,-1.46094 -0.91492,0.0227 -1.82921,0.0437 -2.74414,0.0664 -9.8965,0.2434 13.76385,7.99023 3.9375,9.1914 -1.20659,0.14741 -2.41255,0.29566 -3.61914,0.44336 -1.12614,-0.61243 -2.32746,-1.10458 -3.37891,-1.83789 -0.99374,-0.69309 -2.75283,-4.07706 -3.90625,-5.17187 -0.73626,-0.69887 -1.58478,-1.26953 -2.37695,-1.9043 -5.793939,-4.64278 -4.159433,-9.90312 0.49805,-9.93164 z"
       inkscape:connector-curvature="0" />
    <path
       id="path4592"
       transform="scale(0.26458333)"
       style="fill:#322c4b;fill-opacity:0;stroke:#322c4b;stroke-width:8.16378021;stroke-miterlimit:4;stroke-dasharray:none;stroke-opacity:0"
       d="m 373.61914,-3.4511719 c -83.65945,0.058742 -86.51878,0.2505384 -119.2832,8 C -13.654898,67.934232 -197.37686,278.13548 -219.33398,546.48828 c -13.87525,169.57877 49.85966,340.71777 172.953121,464.40822 84.999679,85.4118 200.617629,146.2166 319.999999,168.291 17.85789,3.301 42.23035,4.021 111.42969,3.2871 88.27712,-0.9362 88.68099,-0.9675 121.58984,-9.6738 79.12752,-20.9337 142.89312,-48.7845 201.66992,-88.082 147.40923,-98.55636 245.50446,-262.56848 261.25,-436.80083 3.9712,-43.94331 1.71596,-120.84114 -4.62304,-157.62891 C 941.79824,356.01434 873.13556,233.9637 768.30859,140.77539 710.60902,89.482029 637.11375,47.615275 560.76172,22.546875 488.51886,-1.1723706 471.6204,-3.5199839 373.61914,-3.4511719 Z M 104.49805,632.08789 c 1.55249,-0.01 3.44085,0.56166 5.50195,1.93164 2.78665,1.85223 4.90671,4.39309 6.81836,7.09375 0.29144,0.41171 0.54542,0.84962 0.8418,1.25781 0.087,0.11981 0.42663,0.40901 0.30664,0.32227 -0.64251,-0.46568 -1.25277,-0.97349 -1.87891,-1.46094 -0.91492,0.0227 -1.82921,0.0437 -2.74414,0.0664 -9.8965,0.2434 13.76385,7.99023 3.9375,9.1914 -1.20659,0.14741 -2.41255,0.29566 -3.61914,0.44336 -1.12614,-0.61243 -2.32746,-1.10458 -3.37891,-1.83789 -0.99374,-0.69309 -2.75283,-4.07706 -3.90625,-5.17187 -0.73626,-0.69887 -1.58478,-1.26953 -2.37695,-1.9043 -5.793939,-4.64278 -4.159433,-9.90312 0.49805,-9.93164 z"
       inkscape:connector-curvature="0" />
    <path
       id="path4594"
       transform="scale(0.26458333)"
       style="fill:#ffff00;fill-opacity:0;stroke:#322c4b;stroke-width:8.16378021;stroke-miterlimit:4;stroke-dasharray:none;stroke-opacity:0"
       d="m 373.61914,-3.4511719 c -83.65945,0.058742 -86.51878,0.2505384 -119.2832,8 C -13.654898,67.934232 -197.37686,278.13548 -219.33398,546.48828 c -13.87525,169.57877 49.85966,340.71777 172.953121,464.40822 84.999679,85.4118 200.617629,146.2166 319.999999,168.291 17.85789,3.301 42.23035,4.021 111.42969,3.2871 88.27712,-0.9362 88.68099,-0.9675 121.58984,-9.6738 79.12752,-20.9337 142.89312,-48.7845 201.66992,-88.082 147.40923,-98.55636 245.50446,-262.56848 261.25,-436.80083 3.9712,-43.94331 1.71596,-120.84114 -4.62304,-157.62891 C 941.79824,356.01434 873.13556,233.9637 768.30859,140.77539 710.60902,89.482029 637.11375,47.615275 560.76172,22.546875 488.51886,-1.1723706 471.6204,-3.5199839 373.61914,-3.4511719 Z M 104.49805,632.08789 c 1.55249,-0.01 3.44085,0.56166 5.50195,1.93164 2.78665,1.85223 4.90671,4.39309 6.81836,7.09375 0.29144,0.41171 0.54542,0.84962 0.8418,1.25781 0.087,0.11981 0.42663,0.40901 0.30664,0.32227 -0.64251,-0.46568 -1.25277,-0.97349 -1.87891,-1.46094 -0.91492,0.0227 -1.82921,0.0437 -2.74414,0.0664 -9.8965,0.2434 13.76385,7.99023 3.9375,9.1914 -1.20659,0.14741 -2.41255,0.29566 -3.61914,0.44336 -1.12614,-0.61243 -2.32746,-1.10458 -3.37891,-1.83789 -0.99374,-0.69309 -2.75283,-4.07706 -3.90625,-5.17187 -0.73626,-0.69887 -1.58478,-1.26953 -2.37695,-1.9043 -5.793939,-4.64278 -4.159433,-9.90312 0.49805,-9.93164 z"
       inkscape:connector-curvature="0" />
    <path
       id="path4596"
       transform="scale(0.26458333)"
       style="fill:#ffff00;fill-opacity:0;stroke:#322c4b;stroke-width:8.16378021;stroke-miterlimit:4;stroke-dasharray:none;stroke-opacity:0"
       d="m 373.61914,-3.4511719 c -83.65945,0.058742 -86.51878,0.2505384 -119.2832,8 C -13.654898,67.934232 -197.37686,278.13548 -219.33398,546.48828 c -13.87525,169.57877 49.85966,340.71777 172.953121,464.40822 84.999679,85.4118 200.617629,146.2166 319.999999,168.291 17.85789,3.301 42.23035,4.021 111.42969,3.2871 88.27712,-0.9362 88.68099,-0.9675 121.58984,-9.6738 79.12752,-20.9337 142.89312,-48.7845 201.66992,-88.082 147.40923,-98.55636 245.50446,-262.56848 261.25,-436.80083 3.9712,-43.94331 1.71596,-120.84114 -4.62304,-157.62891 C 941.79824,356.01434 873.13556,233.9637 768.30859,140.77539 710.60902,89.482029 637.11375,47.615275 560.76172,22.546875 488.51886,-1.1723706 471.6204,-3.5199839 373.61914,-3.4511719 Z M 104.49805,632.08789 c 1.55249,-0.01 3.44085,0.56166 5.50195,1.93164 2.78665,1.85223 4.90671,4.39309 6.81836,7.09375 0.29144,0.41171 0.54542,0.84962 0.8418,1.25781 0.087,0.11981 0.42663,0.40901 0.30664,0.32227 -0.64251,-0.46568 -1.25277,-0.97349 -1.87891,-1.46094 -0.91492,0.0227 -1.82921,0.0437 -2.74414,0.0664 -9.8965,0.2434 13.76385,7.99023 3.9375,9.1914 -1.20659,0.14741 -2.41255,0.29566 -3.61914,0.44336 -1.12614,-0.61243 -2.32746,-1.10458 -3.37891,-1.83789 -0.99374,-0.69309 -2.75283,-4.07706 -3.90625,-5.17187 -0.73626,-0.69887 -1.58478,-1.26953 -2.37695,-1.9043 -5.793939,-4.64278 -4.159433,-9.90312 0.49805,-9.93164 z"
       inkscape:connector-curvature="0" />
    <path
       id="path4598"
       transform="scale(0.26458333)"
       style="fill:#ffff00;fill-opacity:0;stroke:#322c4b;stroke-width:8.16378021;stroke-miterlimit:4;stroke-dasharray:none;stroke-opacity:0"
       d="m 373.61914,-3.4511719 c -83.65945,0.058742 -86.51878,0.2505384 -119.2832,8 C -13.654898,67.934232 -197.37686,278.13548 -219.33398,546.48828 c -13.87525,169.57877 49.85966,340.71777 172.953121,464.40822 84.999679,85.4118 200.617629,146.2166 319.999999,168.291 17.85789,3.301 42.23035,4.021 111.42969,3.2871 88.27712,-0.9362 88.68099,-0.9675 121.58984,-9.6738 79.12752,-20.9337 142.89312,-48.7845 201.66992,-88.082 147.40923,-98.55636 245.50446,-262.56848 261.25,-436.80083 3.9712,-43.94331 1.71596,-120.84114 -4.62304,-157.62891 C 941.79824,356.01434 873.13556,233.9637 768.30859,140.77539 710.60902,89.482029 637.11375,47.615275 560.76172,22.546875 488.51886,-1.1723706 471.6204,-3.5199839 373.61914,-3.4511719 Z M 104.49805,632.08789 c 1.55249,-0.01 3.44085,0.56166 5.50195,1.93164 2.78665,1.85223 4.90671,4.39309 6.81836,7.09375 0.29144,0.41171 0.54542,0.84962 0.8418,1.25781 0.087,0.11981 0.42663,0.40901 0.30664,0.32227 -0.64251,-0.46568 -1.25277,-0.97349 -1.87891,-1.46094 -0.91492,0.0227 -1.82921,0.0437 -2.74414,0.0664 -9.8965,0.2434 13.76385,7.99023 3.9375,9.1914 -1.20659,0.14741 -2.41255,0.29566 -3.61914,0.44336 -1.12614,-0.61243 -2.32746,-1.10458 -3.37891,-1.83789 -0.99374,-0.69309 -2.75283,-4.07706 -3.90625,-5.17187 -0.73626,-0.69887 -1.58478,-1.26953 -2.37695,-1.9043 -5.793939,-4.64278 -4.159433,-9.90312 0.49805,-9.93164 z"
       inkscape:connector-curvature="0" />
    <path
       id="path4600"
       transform="scale(0.26458333)"
       style="fill:#ffff00;fill-opacity:0;stroke:#322c4b;stroke-width:8.16378021;stroke-miterlimit:4;stroke-dasharray:none;stroke-opacity:0"
       d="m 373.61914,-3.4511719 c -83.65945,0.058742 -86.51878,0.2505384 -119.2832,8 C -13.654898,67.934232 -197.37686,278.13548 -219.33398,546.48828 c -13.87525,169.57877 49.85966,340.71777 172.953121,464.40822 84.999679,85.4118 200.617629,146.2166 319.999999,168.291 17.85789,3.301 42.23035,4.021 111.42969,3.2871 88.27712,-0.9362 88.68099,-0.9675 121.58984,-9.6738 79.12752,-20.9337 142.89312,-48.7845 201.66992,-88.082 147.40923,-98.55636 245.50446,-262.56848 261.25,-436.80083 3.9712,-43.94331 1.71596,-120.84114 -4.62304,-157.62891 C 941.79824,356.01434 873.13556,233.9637 768.30859,140.77539 710.60902,89.482029 637.11375,47.615275 560.76172,22.546875 488.51886,-1.1723706 471.6204,-3.5199839 373.61914,-3.4511719 Z M 104.49805,632.08789 c 1.55249,-0.01 3.44085,0.56166 5.50195,1.93164 2.78665,1.85223 4.90671,4.39309 6.81836,7.09375 0.29144,0.41171 0.54542,0.84962 0.8418,1.25781 0.087,0.11981 0.42663,0.40901 0.30664,0.32227 -0.64251,-0.46568 -1.25277,-0.97349 -1.87891,-1.46094 -0.91492,0.0227 -1.82921,0.0437 -2.74414,0.0664 -9.8965,0.2434 13.76385,7.99023 3.9375,9.1914 -1.20659,0.14741 -2.41255,0.29566 -3.61914,0.44336 -1.12614,-0.61243 -2.32746,-1.10458 -3.37891,-1.83789 -0.99374,-0.69309 -2.75283,-4.07706 -3.90625,-5.17187 -0.73626,-0.69887 -1.58478,-1.26953 -2.37695,-1.9043 -5.793939,-4.64278 -4.159433,-9.90312 0.49805,-9.93164 z"
       inkscape:connector-curvature="0" />
    <path
       id="path4602"
       transform="scale(0.26458333)"
       style="fill:#ffff00;fill-opacity:0;stroke:#322c4b;stroke-width:8.16378021;stroke-miterlimit:4;stroke-dasharray:none;stroke-opacity:0"
       d="m 373.61914,-3.4511719 c -83.65945,0.058742 -86.51878,0.2505384 -119.2832,8 C -13.654898,67.934232 -197.37686,278.13548 -219.33398,546.48828 c -13.87525,169.57877 49.85966,340.71777 172.953121,464.40822 84.999679,85.4118 200.617629,146.2166 319.999999,168.291 17.85789,3.301 42.23035,4.021 111.42969,3.2871 88.27712,-0.9362 88.68099,-0.9675 121.58984,-9.6738 79.12752,-20.9337 142.89312,-48.7845 201.66992,-88.082 147.40923,-98.55636 245.50446,-262.56848 261.25,-436.80083 3.9712,-43.94331 1.71596,-120.84114 -4.62304,-157.62891 C 941.79824,356.01434 873.13556,233.9637 768.30859,140.77539 710.60902,89.482029 637.11375,47.615275 560.76172,22.546875 488.51886,-1.1723706 471.6204,-3.5199839 373.61914,-3.4511719 Z M 104.49805,632.08789 c 1.55249,-0.01 3.44085,0.56166 5.50195,1.93164 2.78665,1.85223 4.90671,4.39309 6.81836,7.09375 0.29144,0.41171 0.54542,0.84962 0.8418,1.25781 0.087,0.11981 0.42663,0.40901 0.30664,0.32227 -0.64251,-0.46568 -1.25277,-0.97349 -1.87891,-1.46094 -0.91492,0.0227 -1.82921,0.0437 -2.74414,0.0664 -9.8965,0.2434 13.76385,7.99023 3.9375,9.1914 -1.20659,0.14741 -2.41255,0.29566 -3.61914,0.44336 -1.12614,-0.61243 -2.32746,-1.10458 -3.37891,-1.83789 -0.99374,-0.69309 -2.75283,-4.07706 -3.90625,-5.17187 -0.73626,-0.69887 -1.58478,-1.26953 -2.37695,-1.9043 -5.793939,-4.64278 -4.159433,-9.90312 0.49805,-9.93164 z"
       inkscape:connector-curvature="0" />
    <path
       id="path4604"
       transform="scale(0.26458333)"
       style="fill:#ffff00;fill-opacity:0;stroke:#322c4b;stroke-width:8.16378021;stroke-miterlimit:4;stroke-dasharray:none;stroke-opacity:0"
       d="m 373.61914,-3.4511719 c -83.65945,0.058742 -86.51878,0.2505384 -119.2832,8 C -13.654898,67.934232 -197.37686,278.13548 -219.33398,546.48828 c -13.87525,169.57877 49.85966,340.71777 172.953121,464.40822 84.999679,85.4118 200.617629,146.2166 319.999999,168.291 17.85789,3.301 42.23035,4.021 111.42969,3.2871 88.27712,-0.9362 88.68099,-0.9675 121.58984,-9.6738 79.12752,-20.9337 142.89312,-48.7845 201.66992,-88.082 147.40923,-98.55636 245.50446,-262.56848 261.25,-436.80083 3.9712,-43.94331 1.71596,-120.84114 -4.62304,-157.62891 C 941.79824,356.01434 873.13556,233.9637 768.30859,140.77539 710.60902,89.482029 637.11375,47.615275 560.76172,22.546875 488.51886,-1.1723706 471.6204,-3.5199839 373.61914,-3.4511719 Z M 104.49805,632.08789 c 1.55249,-0.01 3.44085,0.56166 5.50195,1.93164 2.78665,1.85223 4.90671,4.39309 6.81836,7.09375 0.29144,0.41171 0.54542,0.84962 0.8418,1.25781 0.087,0.11981 0.42663,0.40901 0.30664,0.32227 -0.64251,-0.46568 -1.25277,-0.97349 -1.87891,-1.46094 -0.91492,0.0227 -1.82921,0.0437 -2.74414,0.0664 -9.8965,0.2434 13.76385,7.99023 3.9375,9.1914 -1.20659,0.14741 -2.41255,0.29566 -3.61914,0.44336 -1.12614,-0.61243 -2.32746,-1.10458 -3.37891,-1.83789 -0.99374,-0.69309 -2.75283,-4.07706 -3.90625,-5.17187 -0.73626,-0.69887 -1.58478,-1.26953 -2.37695,-1.9043 -5.793939,-4.64278 -4.159433,-9.90312 0.49805,-9.93164 z"
       inkscape:connector-curvature="0" />
    <path
       id="path4606"
       transform="scale(0.26458333)"
       style="fill:#ffff00;fill-opacity:0;stroke:#322c4b;stroke-width:8.16378021;stroke-miterlimit:4;stroke-dasharray:none;stroke-opacity:0"
       d="m 373.61914,-3.4511719 c -83.65945,0.058742 -86.51878,0.2505384 -119.2832,8 C -13.654898,67.934232 -197.37686,278.13548 -219.33398,546.48828 c -13.87525,169.57877 49.85966,340.71777 172.953121,464.40822 84.999679,85.4118 200.617629,146.2166 319.999999,168.291 17.85789,3.301 42.23035,4.021 111.42969,3.2871 88.27712,-0.9362 88.68099,-0.9675 121.58984,-9.6738 79.12752,-20.9337 142.89312,-48.7845 201.66992,-88.082 147.40923,-98.55636 245.50446,-262.56848 261.25,-436.80083 3.9712,-43.94331 1.71596,-120.84114 -4.62304,-157.62891 C 941.79824,356.01434 873.13556,233.9637 768.30859,140.77539 710.60902,89.482029 637.11375,47.615275 560.76172,22.546875 488.51886,-1.1723706 471.6204,-3.5199839 373.61914,-3.4511719 Z M 104.49805,632.08789 c 1.55249,-0.01 3.44085,0.56166 5.50195,1.93164 2.78665,1.85223 4.90671,4.39309 6.81836,7.09375 0.29144,0.41171 0.54542,0.84962 0.8418,1.25781 0.087,0.11981 0.42663,0.40901 0.30664,0.32227 -0.64251,-0.46568 -1.25277,-0.97349 -1.87891,-1.46094 -0.91492,0.0227 -1.82921,0.0437 -2.74414,0.0664 -9.8965,0.2434 13.76385,7.99023 3.9375,9.1914 -1.20659,0.14741 -2.41255,0.29566 -3.61914,0.44336 -1.12614,-0.61243 -2.32746,-1.10458 -3.37891,-1.83789 -0.99374,-0.69309 -2.75283,-4.07706 -3.90625,-5.17187 -0.73626,-0.69887 -1.58478,-1.26953 -2.37695,-1.9043 -5.793939,-4.64278 -4.159433,-9.90312 0.49805,-9.93164 z"
       inkscape:connector-curvature="0" />
    <path
       id="path4608"
       transform="scale(0.26458333)"
       style="fill:#ffff00;fill-opacity:0;stroke:#322c4b;stroke-width:8.16378021;stroke-miterlimit:4;stroke-dasharray:none;stroke-opacity:0"
       d="m 373.61914,-3.4511719 c -83.65945,0.058742 -86.51878,0.2505384 -119.2832,8 C -13.654898,67.934232 -197.37686,278.13548 -219.33398,546.48828 c -13.87525,169.57877 49.85966,340.71777 172.953121,464.40822 84.999679,85.4118 200.617629,146.2166 319.999999,168.291 17.85789,3.301 42.23035,4.021 111.42969,3.2871 88.27712,-0.9362 88.68099,-0.9675 121.58984,-9.6738 79.12752,-20.9337 142.89312,-48.7845 201.66992,-88.082 147.40923,-98.55636 245.50446,-262.56848 261.25,-436.80083 3.9712,-43.94331 1.71596,-120.84114 -4.62304,-157.62891 C 941.79824,356.01434 873.13556,233.9637 768.30859,140.77539 710.60902,89.482029 637.11375,47.615275 560.76172,22.546875 488.51886,-1.1723706 471.6204,-3.5199839 373.61914,-3.4511719 Z M 104.49805,632.08789 c 1.55249,-0.01 3.44085,0.56166 5.50195,1.93164 2.78665,1.85223 4.90671,4.39309 6.81836,7.09375 0.29144,0.41171 0.54542,0.84962 0.8418,1.25781 0.087,0.11981 0.42663,0.40901 0.30664,0.32227 -0.64251,-0.46568 -1.25277,-0.97349 -1.87891,-1.46094 -0.91492,0.0227 -1.82921,0.0437 -2.74414,0.0664 -9.8965,0.2434 13.76385,7.99023 3.9375,9.1914 -1.20659,0.14741 -2.41255,0.29566 -3.61914,0.44336 -1.12614,-0.61243 -2.32746,-1.10458 -3.37891,-1.83789 -0.99374,-0.69309 -2.75283,-4.07706 -3.90625,-5.17187 -0.73626,-0.69887 -1.58478,-1.26953 -2.37695,-1.9043 -5.793939,-4.64278 -4.159433,-9.90312 0.49805,-9.93164 z"
       inkscape:connector-curvature="0" />
    <path
       id="path4610"
       transform="scale(0.26458333)"
       style="fill:#ffff00;fill-opacity:0;stroke:#322c4b;stroke-width:8.16378021;stroke-miterlimit:4;stroke-dasharray:none;stroke-opacity:0"
       d="m 373.61914,-3.4511719 c -83.65945,0.058742 -86.51878,0.2505384 -119.2832,8 C -13.654898,67.934232 -197.37686,278.13548 -219.33398,546.48828 c -13.87525,169.57877 49.85966,340.71777 172.953121,464.40822 84.999679,85.4118 200.617629,146.2166 319.999999,168.291 17.85789,3.301 42.23035,4.021 111.42969,3.2871 88.27712,-0.9362 88.68099,-0.9675 121.58984,-9.6738 79.12752,-20.9337 142.89312,-48.7845 201.66992,-88.082 147.40923,-98.55636 245.50446,-262.56848 261.25,-436.80083 3.9712,-43.94331 1.71596,-120.84114 -4.62304,-157.62891 C 941.79824,356.01434 873.13556,233.9637 768.30859,140.77539 710.60902,89.482029 637.11375,47.615275 560.76172,22.546875 488.51886,-1.1723706 471.6204,-3.5199839 373.61914,-3.4511719 Z M 104.49805,632.08789 c 1.55249,-0.01 3.44085,0.56166 5.50195,1.93164 2.78665,1.85223 4.90671,4.39309 6.81836,7.09375 0.29144,0.41171 0.54542,0.84962 0.8418,1.25781 0.087,0.11981 0.42663,0.40901 0.30664,0.32227 -0.64251,-0.46568 -1.25277,-0.97349 -1.87891,-1.46094 -0.91492,0.0227 -1.82921,0.0437 -2.74414,0.0664 -9.8965,0.2434 13.76385,7.99023 3.9375,9.1914 -1.20659,0.14741 -2.41255,0.29566 -3.61914,0.44336 -1.12614,-0.61243 -2.32746,-1.10458 -3.37891,-1.83789 -0.99374,-0.69309 -2.75283,-4.07706 -3.90625,-5.17187 -0.73626,-0.69887 -1.58478,-1.26953 -2.37695,-1.9043 -5.793939,-4.64278 -4.159433,-9.90312 0.49805,-9.93164 z"
       inkscape:connector-curvature="0" />
    <path
       id="path4612"
       transform="scale(0.26458333)"
       style="fill:#ffff00;fill-opacity:0;stroke:#322c4b;stroke-width:8.16378021;stroke-miterlimit:4;stroke-dasharray:none;stroke-opacity:0"
       d="M 376.50195,-10.025391 C 216.27339,-10.086891 57.333993,53.855956 -59.226562,176.99414 -201.67246,327.4784 -256.7348,539.85487 -205.06641,739.50195 c 62.25947,240.57109 270.508914,420.79955 516.16211,446.70895 35.82043,3.7781 99.68286,3.3009 135.38086,-1.0117 C 678.31787,1157.191 871.1263,999.60517 944.79102,777.91797 1030.4783,520.04983 931.73937,237.46247 703.61914,87.691406 603.60148,22.025366 489.73014,-9.9819303 376.50195,-10.025391 Z M 104.49805,632.08789 c 1.55249,-0.01 3.44085,0.56166 5.50195,1.93164 2.78665,1.85223 4.90671,4.39309 6.81836,7.09375 0.29144,0.41171 0.54542,0.84962 0.8418,1.25781 0.087,0.11981 0.42663,0.40901 0.30664,0.32227 -0.64251,-0.46568 -1.25277,-0.97349 -1.87891,-1.46094 -0.91492,0.0227 -1.82921,0.0437 -2.74414,0.0664 -9.8965,0.2434 13.76385,7.99023 3.9375,9.1914 -1.20659,0.14741 -2.41255,0.29566 -3.61914,0.44336 -1.12614,-0.61243 -2.32746,-1.10458 -3.37891,-1.83789 -0.99374,-0.69309 -2.75283,-4.07706 -3.90625,-5.17187 -0.73626,-0.69887 -1.58478,-1.26953 -2.37695,-1.9043 -5.793939,-4.64278 -4.159433,-9.90312 0.49805,-9.93164 z"
       inkscape:connector-curvature="0" />
    <path
       id="path4614"
       transform="scale(0.26458333)"
       style="fill:#ffff00;fill-opacity:0;stroke:#322c4b;stroke-width:8.16378021;stroke-miterlimit:4;stroke-dasharray:none;stroke-opacity:0"
       d="M 376.50195,-10.025391 C 216.27339,-10.086891 57.333993,53.855956 -59.226562,176.99414 -201.67246,327.4784 -256.7348,539.85487 -205.06641,739.50195 c 62.25947,240.57109 270.508914,420.79955 516.16211,446.70895 35.82043,3.7781 99.68286,3.3009 135.38086,-1.0117 C 678.31787,1157.191 871.1263,999.60517 944.79102,777.91797 1030.4783,520.04983 931.73937,237.46247 703.61914,87.691406 603.60148,22.025366 489.73014,-9.9819303 376.50195,-10.025391 Z M 104.49805,632.08789 c 1.55249,-0.01 3.44085,0.56166 5.50195,1.93164 2.78665,1.85223 4.90671,4.39309 6.81836,7.09375 0.29144,0.41171 0.54542,0.84962 0.8418,1.25781 0.087,0.11981 0.42663,0.40901 0.30664,0.32227 -0.64251,-0.46568 -1.25277,-0.97349 -1.87891,-1.46094 -0.91492,0.0227 -1.82921,0.0437 -2.74414,0.0664 -9.8965,0.2434 13.76385,7.99023 3.9375,9.1914 -1.20659,0.14741 -2.41255,0.29566 -3.61914,0.44336 -1.12614,-0.61243 -2.32746,-1.10458 -3.37891,-1.83789 -0.99374,-0.69309 -2.75283,-4.07706 -3.90625,-5.17187 -0.73626,-0.69887 -1.58478,-1.26953 -2.37695,-1.9043 -5.793939,-4.64278 -4.159433,-9.90312 0.49805,-9.93164 z"
       inkscape:connector-curvature="0" />
  </g>
  <g
     inkscape:groupmode="layer"
     id="layer2"
     inkscape:label="Layer 2"
     transform="translate(-43.420412,-88.053881)"
     sodipodi:insensitive="true">
    <path
       style="fill:#009a48;fill-opacity:1;stroke:#214bff;stroke-width:3.53816938;stroke-linecap:round;stroke-linejoin:round;stroke-miterlimit:4;stroke-dasharray:none;stroke-opacity:1;paint-order:markers fill stroke"
       d="M 49.774431,143.13158 H 164.42807 l -15.01746,52.08151 H 65.133401 Z"
       id="path4641"
       inkscape:connector-curvature="0"
       sodipodi:nodetypes="ccccc" />
  </g>
  <g
     inkscape:groupmode="layer"
     id="layer3"
     inkscape:label="Layer 3"
     transform="translate(-43.420412,-88.053881)"
     sodipodi:insensitive="true">
    <circle
       style="fill:#fecb00;fill-opacity:1;stroke:#214bff;stroke-width:0;stroke-linecap:square;stroke-linejoin:miter;stroke-miterlimit:4;stroke-dasharray:none;stroke-opacity:1;paint-order:fill markers stroke"
       id="path1425"
       cx="132.30888"
       cy="180.98441"
       r="6.4533095" />
    <circle
       style="fill:#fecb00;fill-opacity:1;stroke:#214bff;stroke-width:0;stroke-linecap:square;stroke-linejoin:miter;stroke-miterlimit:4;stroke-dasharray:none;stroke-opacity:1;paint-order:fill markers stroke"
       id="path1425-5-2"
       cx="107.99144"
       cy="180.98315"
       r="6.4533095" />
    <circle
       style="fill:#fecb00;fill-opacity:1;stroke:#214bff;stroke-width:0;stroke-linecap:square;stroke-linejoin:miter;stroke-miterlimit:4;stroke-dasharray:none;stroke-opacity:1;paint-order:fill markers stroke"
       id="path1425-5-2-6"
       cx="83.671402"
       cy="181.04088"
       r="6.4533095" />
    <circle
       style="fill:#fecb00;fill-opacity:1;stroke:#214bff;stroke-width:0;stroke-linecap:square;stroke-linejoin:miter;stroke-miterlimit:4;stroke-dasharray:none;stroke-opacity:1;paint-order:fill markers stroke"
       id="path1425-1"
       cx="143.72081"
       cy="156.11473"
       r="6.4533095" />
    <circle
       style="fill:#fecb00;fill-opacity:1;stroke:#214bff;stroke-width:0;stroke-linecap:square;stroke-linejoin:miter;stroke-miterlimit:4;stroke-dasharray:none;stroke-opacity:1;paint-order:fill markers stroke"
       id="path1425-5-2-2"
       cx="119.4035"
       cy="156.11348"
       r="6.4533095" />
    <circle
       style="fill:#fecb00;fill-opacity:1;stroke:#214bff;stroke-width:0;stroke-linecap:square;stroke-linejoin:miter;stroke-miterlimit:4;stroke-dasharray:none;stroke-opacity:1;paint-order:fill markers stroke"
       id="path1425-5-2-6-7"
       cx="95.083511"
       cy="156.1712"
       r="6.4533095" />
    <circle
       style="fill:#fecb00;fill-opacity:1;stroke:#214bff;stroke-width:0;stroke-linecap:square;stroke-linejoin:miter;stroke-miterlimit:4;stroke-dasharray:none;stroke-opacity:1;paint-order:fill markers stroke"
       id="path1425-5-2-6-7-9"
       cx="70.735313"
       cy="156.23505"
       r="6.4533095" />
  </g>
  <g
     inkscape:groupmode="layer"
     id="layer5"
     inkscape:label="Layer 4"
     sodipodi:insensitive="true">
    <g
       aria-label="Dinawari"
       style="font-style:normal;font-variant:normal;font-weight:500;font-stretch:normal;font-size:26.45833206px;line-height:1.25;font-family:Ubuntu;-inkscape-font-specification:'Ubuntu Medium';text-align:center;letter-spacing:0px;word-spacing:0px;text-anchor:middle;fill:#ff6d00;fill-opacity:1;stroke:none;stroke-width:0.26458332"
       id="text991">
      <path
         id="path1013"
         style="font-size:28.22222137px;stroke-width:0.26458332"
         d="m 107.99726,59.489507 -1.81866,-2.890314 12.49284,-7.86085 1.81867,2.890314 z M 124.3402,49.63955 q -0.81216,0.51103 -1.62056,0.286125 -0.80841,-0.224906 -1.25932,-0.941513 -0.46594,-0.740493 -0.31886,-1.566611 0.14707,-0.826118 0.95922,-1.337148 0.83604,-0.526061 1.64445,-0.301156 0.8084,0.224906 1.27434,0.9654 0.45091,0.716606 0.30384,1.542724 -0.14707,0.826118 -0.98311,1.352179 z m -10.77433,-3.101532 q -0.16405,-0.414982 -0.54581,-1.089379 -0.34201,-0.670923 -0.97701,-1.427549 -0.36285,-0.432359 -0.86661,-0.856999 -0.48561,-0.403023 -0.71375,-0.543156 l -9.0579,7.601817 -2.195275,-2.615767 10.765715,-9.035095 q 0.91603,0.520771 2.09725,1.445331 1.22098,0.928036 2.38212,2.311583 0.21771,0.259415 0.46476,0.641587 0.26867,0.364029 0.4941,0.764344 0.24705,0.382172 0.43272,0.779011 0.20729,0.378697 0.30572,0.627687 z M 93.316522,39.138484 q 1.255078,0.960512 2.007942,1.323447 l 2.298366,-3.003224 q -0.172665,-0.238756 -0.547039,-0.63188 -0.374374,-0.393125 -0.889853,-0.78762 -0.448242,-0.34304 -0.970353,-0.635996 -0.499698,-0.275803 -1.01792,-0.38809 -0.49581,-0.09513 -0.977211,0.06953 -0.464249,0.14225 -0.841593,0.635316 -0.737535,0.963721 -0.423992,1.807831 0.330695,0.821698 1.361653,1.610689 z m 7.511428,-10.279385 q 1.34473,1.02912 2.00634,2.068533 0.66162,1.039413 0.73641,2.056188 0.0972,1.033927 -0.34761,2.07952 -0.40524,1.040332 -1.19423,2.07129 l -5.437186,7.104641 q -0.730451,-0.345783 -2.145157,-1.14415 -1.409447,-0.758802 -3.000707,-1.976593 -1.05337,-0.806144 -1.773075,-1.67678 -0.719704,-0.870637 -1.004204,-1.799135 -0.262087,-0.911346 -0.07182,-1.902966 0.212682,-0.974468 1.018825,-2.027837 0.77184,-1.008545 1.684557,-1.411737 0.93513,-0.38604 1.933382,-0.297311 1.015403,0.06632 2.026691,0.555948 1.050853,0.484371 2.014574,1.221907 0.448242,0.343039 0.889853,0.78762 0.458763,0.422168 0.916154,0.98544 l 0.343039,-0.448242 q 0.360192,-0.470655 0.574019,-0.982245 0.213835,-0.51159 0.162605,-1.048336 -0.0117,-0.542005 -0.345111,-1.081494 -0.311027,-0.522337 -1.005802,-1.054049 -0.941309,-0.720383 -1.828645,-1.18623 -0.887336,-0.465847 -1.517619,-0.663894 l 1.344713,-2.453667 q 0.652695,0.215199 1.776044,0.790589 1.123349,0.575391 2.24396,1.43299 z M 78.119297,23.795827 q -1.3021,2.212223 -2.682004,4.285039 -1.345053,2.053365 -2.620804,3.862367 l -2.687993,-0.762318 q -0.188821,-1.40297 -0.331842,-3.174309 -0.14302,-1.77134 -0.22444,-3.759891 -0.08142,-1.98855 -0.108937,-4.167161 -0.02752,-2.178611 -0.0048,-4.430976 l 3.475385,0.985623 q -0.07905,1.209663 -0.130537,2.632486 -0.04379,1.395671 -0.08353,2.880497 -0.03204,1.457675 -0.02153,2.868747 0.01051,1.411072 0.08262,2.604932 0.76148,-1.133464 1.518909,-2.356082 0.784581,-1.214918 1.514859,-2.445236 0.730278,-1.230318 1.383152,-2.394583 0.687726,-1.183715 1.247797,-2.227623 l 2.525084,0.716117 q -0.07134,1.182511 -0.134587,2.543331 -0.05554,1.333669 -0.107035,2.756492 -0.02434,1.430523 -0.02153,2.868746 0.02996,1.445924 0.08303,2.810393 0.660976,-0.985956 1.410705,-2.181422 0.749729,-1.195467 1.487707,-2.452937 0.77283,-1.276921 1.468256,-2.487788 0.703127,-1.238018 1.270897,-2.309077 l 3.393931,0.962523 q -1.163095,1.928957 -2.33024,3.76876 -1.167146,1.839803 -2.28039,3.489545 -1.113244,1.649743 -2.164887,3.082274 -1.051642,1.432531 -1.976031,2.519794 L 78.40967,33.529472 q -0.136124,-2.209412 -0.257249,-4.678587 -0.08627,-2.488626 -0.03314,-5.055058 z m -21.072013,5.28871 q 1.565152,-0.21933 2.352177,-0.500606 l -0.524824,-3.745184 q -0.291241,-0.04468 -0.834024,-0.05411 -0.542783,-0.0094 -1.185614,0.08065 -0.558982,0.07833 -1.134164,0.244427 -0.547233,0.16218 -0.991036,0.452355 -0.415853,0.286259 -0.636595,0.744662 -0.224659,0.430453 -0.138494,1.045334 0.168413,1.201813 0.989622,1.5712 0.817292,0.341438 2.102952,0.161275 z M 55.001408,16.518644 q 1.676948,-0.234996 2.881612,0.02366 1.204663,0.258657 1.98119,0.919285 0.804477,0.656712 1.236715,1.707562 0.456271,1.018985 0.636435,2.304645 l 1.241561,8.859875 q -0.759076,0.27736 -2.320844,0.724199 -1.529902,0.470871 -3.514291,0.74895 -1.313609,0.18408 -2.438875,0.08529 -1.125265,-0.09879 -1.986173,-0.548113 -0.832958,-0.453235 -1.405475,-1.284942 -0.544569,-0.835623 -0.728649,-2.149232 -0.176246,-1.257711 0.177474,-2.190716 0.38167,-0.936922 1.145729,-1.585454 0.760142,-0.67648 1.818825,-1.052821 1.082716,-0.408206 2.284529,-0.576619 0.558983,-0.07833 1.185614,-0.08065 0.622714,-0.03027 1.344942,0.03951 l -0.07833,-0.558983 q -0.08225,-0.586931 -0.29641,-1.098382 -0.214161,-0.51145 -0.632332,-0.851823 -0.394138,-0.372237 -1.012403,-0.513582 -0.590315,-0.145261 -1.456739,-0.02385 -1.173863,0.164497 -2.128583,0.469273 -0.95472,0.304776 -1.538269,0.614534 l -0.803063,-2.680266 q 0.611497,-0.313675 1.809926,-0.709598 1.19843,-0.395924 2.595886,-0.591753 z m -24.346592,9.747272 q 0.752171,-0.699709 2.045287,-1.643198 1.293117,-0.943488 3.003282,-1.814305 1.609568,-0.819591 2.921506,-0.917564 1.299132,-0.123122 2.337666,0.361509 1.050876,0.446675 1.878647,1.450341 0.840114,0.96571 1.518838,2.298633 l 3.765,7.393951 -3.043088,1.549541 -3.521684,-6.91611 q -0.537857,-1.056279 -1.060132,-1.708778 -0.509931,-0.690454 -1.067385,-0.976665 -0.54511,-0.324167 -1.200848,-0.243628 -0.643394,0.04258 -1.423029,0.439573 -0.578438,0.294541 -1.168757,0.690142 -0.590319,0.395602 -0.8665,0.599574 l 5.404184,10.613086 -3.043089,1.549541 z m 3.140913,15.569649 -2.627591,2.181108 -9.427432,-11.357274 2.627591,-2.181108 z M 21.892671,26.921466 q 0.612873,0.738331 0.495643,1.569209 -0.117231,0.830878 -0.768699,1.371648 -0.673185,0.558796 -1.511442,0.521049 -0.838258,-0.03775 -1.451131,-0.776079 -0.630899,-0.760047 -0.513669,-1.590925 0.11723,-0.830877 0.790415,-1.389674 0.651469,-0.54077 1.489726,-0.503022 0.838258,0.03775 1.469157,0.797794 z m -4.223782,27.783629 q 0.21416,-0.226512 0.55049,-0.608275 0.314151,-0.399215 0.85519,-1.086753 2.216513,-2.816685 1.879158,-5.308743 -0.342081,-2.53169 -2.914802,-4.556221 -2.617078,-2.059437 -5.078956,-1.806071 -2.461878,0.253367 -4.6958438,3.092231 -0.97736,1.242003 -1.3296927,1.826649 z m 2.673813,-14.487571 q 1.996076,1.570757 2.993365,3.3611 0.975109,1.77289 1.065599,3.711558 0.08576,1.899035 -0.700365,3.902038 -0.790854,1.963371 -2.326706,3.915091 -0.73302,0.931502 -1.746736,2.037158 -0.991537,1.123109 -2.073239,1.995701 L 2.6284028,47.394398 q 0.5937723,-1.256556 1.4696907,-2.50656 0.8759183,-1.250005 1.6089383,-2.181507 1.5183986,-1.929541 3.2407555,-3.159892 1.7001787,-1.247804 3.5661337,-1.610989 1.86123,-0.402816 3.835878,0.145524 1.952469,0.530887 3.992903,2.13655 z"
         inkscape:connector-curvature="0" />
    </g>
  </g>
</svg>
